<svg xmlns="http://www.w3.org/2000/svg" width="2500" height="2500" viewBox="-87 -124 600 674">
    <g fill="none" fill-rule="evenodd">
        <path fill="#073042" fill-rule="nonzero"
              d="M169.15 54.14H72.74a35.41 35.41 0 0 0-35.31 35.3c0 19.43 14.71 35.32 34.13 35.32h98.41l-.82-70.62z"/>
        <path fill="#4285f4" fill-rule="nonzero"
              d="M388.6 368.67H72.7a35.41 35.41 0 0 1-35.3-35.31V89.34s-.11 35.42 37.62 35.42h262s51.59-4.44 51.59 34.03z"/>
        <path d="M221.8 198.85a19.6 19.6 0 1 0 0 39.22 19.6 19.6 0 0 0 0-39.22z"/>
        <g fill-rule="nonzero">
            <path fill="#3870b2"
                  d="M241.2 243.66a31.78 31.78 0 0 0 12.44-25.2 31.86 31.86 0 0 0-30.67-31.78c.36-.02.72-.06 1.09-.06 1.9 0 3.76.2 5.58.52v-20.2a6.12 6.12 0 0 0-6.12-6.12 6.12 6.12 0 0 0-6.12 6.12v20.02a31.87 31.87 0 0 0-27.45 31.5 31.8 31.8 0 0 0 13.45 25.95l-58.2 124.25h38.04l26.88-57.54c4.97-10.56 19.99-10.6 25.03-.07l27.71 57.61h38.36l-60-125zm-19.4-5.59a19.6 19.6 0 1 1 0-39.21 19.6 19.6 0 0 1 0 39.21z"/>
            <path fill="#073042"
                  d="M211.28 198.85a19.61 19.61 0 1 1 0 39.22 19.61 19.61 0 0 1 0-39.22zm7.84-11.71v-20.2a6.12 6.12 0 0 0-6.12-6.12 6.12 6.12 0 0 0-6.12 6.12v20.02a31.87 31.87 0 0 0-27.45 31.5 31.8 31.8 0 0 0 13.45 25.95l-73.5 156.63a17.27 17.27 0 0 0 15.65 24.56 17.27 17.27 0 0 0 15.66-9.98l48.9-104.5c4.98-10.56 20-10.6 25.03-.07l50 103.94a17.25 17.25 0 0 0 15.55 9.75A17.25 17.25 0 0 0 305.7 400l-75-156.34a31.78 31.78 0 0 0 12.44-25.2 31.86 31.86 0 0 0-24.01-30.83"/>
            <path fill="#fff" d="M148.25 71.48H283.4v24.75H148.25z"/>
            <path fill="#3ddc84"
                  d="M263.8 93.33a9.2 9.2 0 0 1 0-18.4 9.2 9.2 0 0 1 0 18.4m-101.6 0a9.2 9.2 0 0 1 0-18.4 9.2 9.2 0 0 1 0 18.4m104.9-55.38 18.38-31.82a3.83 3.83 0 0 0-1.4-5.22 3.83 3.83 0 0 0-5.22 1.4l-18.6 32.22A113.41 113.41 0 0 0 213 24.42a113.4 113.4 0 0 0-47.25 10.11L147.15 2.3a3.83 3.83 0 0 0-5.23-1.4 3.82 3.82 0 0 0-1.4 5.23l18.37 31.82c-31.55 17.16-53.13 49.1-56.28 86.84h220.78c-3.16-37.74-24.74-69.68-56.28-86.84"/>
            <path fill="#073042"
                  d="M356.84 192.53h-14.6c-.96 0-1.75.8-1.75 1.76l-.36 229c0 .96.8 1.75 1.76 1.75l14.95.09a31.86 31.86 0 0 0 31.77-31.77V160.73a31.9 31.9 0 0 1-31.77 31.8z"/>
        </g>
        <path d="M-87-124h600v674H-87z"/>
    </g>
</svg>
