<svg xmlns="http://www.w3.org/2000/svg" width="136.75" height="164.56" viewBox="116.34 4.48 136.75 164.56">
    <path fill="#78ca2a"
          d="M229.26 130.5a5.33 5.33 0 0 1-5.33 5.33H145.5a5.34 5.34 0 0 1-5.34-5.33V60.56c0-2.95 2.4-5.34 5.34-5.34h78.42a5.33 5.33 0 0 1 5.33 5.34v69.94"/>
    <path fill="#78ca2a"
          d="M229.35 91.96h-89.26V55.22h89.26v36.74m23.74 12.38a9.5 9.5 0 1 1-18.99 0V61.68a9.5 9.5 0 0 1 18.99 0v42.66m-117.76 0a9.5 9.5 0 0 1-18.99 0V61.68a9.5 9.5 0 1 1 18.99 0v42.66m5.13-54.37s.98-37.78 44.26-37.65c42.86.14 44.26 37.65 44.26 37.65h-88.52"/>
    <path fill="#fff"
          d="M170.62 30.68a5.33 5.33 0 1 1-10.66 0 5.33 5.33 0 0 1 10.66 0m38.85 0a5.33 5.33 0 1 1-10.66 0 5.33 5.33 0 0 1 10.66 0"/>
    <path fill="#78ca2a"
          d="M163.83 17.4c.15.22.63.15 1.08-.16.43-.3.66-.74.5-.96L157.15 4.6c-.16-.23-.65-.15-1.08.16-.44.3-.67.74-.51.96l8.27 11.67m41.77.01c-.15.22-.63.15-1.07-.16-.44-.3-.67-.74-.51-.96l8.27-11.67c.15-.23.64-.15 1.08.16.44.3.66.74.5.96l-8.26 11.67m6.92 142.14a9.5 9.5 0 1 1-18.99 0V116.9a9.5 9.5 0 0 1 18.99 0v42.65m-36.64-.01a9.5 9.5 0 0 1-18.98 0V116.9a9.5 9.5 0 1 1 18.98 0v42.65"/>
</svg>
