<svg xmlns="http://www.w3.org/2000/svg" viewBox="0 0 410.1 185">
    <path fill="#040404"
          d="M120.72 184.58c-.16-.27 1.8-2.41 5.14-5.62l5.41-5.2v-10.54c0-8.53.09-10.63.5-10.97.72-.6 38.43-.6 39.13 0 .7.58.76 31.63.07 32.31-.63.63-49.86.65-50.27.02zm64.41-.01c-.33-.33-.44-4.43-.44-16.14s.11-15.81.44-16.14c.34-.34 5.26-.45 19.89-.45 19.04 0 19.45.02 19.83.74.27.5.36 5.76.3 16.23-.1 13.29-.19 15.54-.66 15.84-.88.55-38.8.47-39.36-.08zm53.8.2c-.35-.15-.46-3.77-.46-16.34 0-14.38.07-16.17.59-16.37.32-.12 9.16-.22 19.64-.22 14.33 0 19.17.11 19.5.44.32.33.45 3.34.46 11.15l.02 10.7 5.32 4.97c2.94 2.73 5.28 5.14 5.2 5.34-.12.39-49.33.7-50.26.32zm-239-42.27c-.11-.28.69-3.22 1.77-6.54s3.4-10.52 5.15-16A9960.06 9960.06 0 0 1 24.37 65.8c2.9-8.86 9.27-28.5 12.37-38.14.29-.91.68-1.9.88-2.21.3-.49 5.12-.57 39.06-.65 26.48-.07 38.95.02 39.43.29.68.36.72.82.72 8.62 0 8.23 0 8.24.83 8.46.45.12 11.02.22 23.49.23 23.93 0 26.61.16 31.34 1.78 5.02 1.73 8.78 4.82 10.75 8.84l1.2 2.45.2-6.32c.1-3.48.26-6.4.37-6.51.3-.3 53.69-.46 53.98-.17.14.14 1.5 4.7 3.01 10.14 4.44 15.9 8.2 28.94 8.4 29.15.37.38.6-.27 2.43-6.79 1.02-3.62 3.17-11.27 4.8-16.99 1.62-5.72 3.2-11.35 3.5-12.5.3-1.16.72-2.33.94-2.6.32-.37 3.32-.48 14.27-.5 7.63 0 14.53-.14 15.34-.28l1.47-.26.1-8.27c.07-6.05.22-8.35.56-8.56.68-.44 77.9-.19 78.34.26.2.2 1.55 4.02 3 8.47l9.44 29.12c3.74 11.56 7.48 22.99 8.3 25.42.8 2.43 1.94 5.92 2.51 7.74.57 1.82 4.13 12.91 7.91 24.64 3.78 11.72 6.8 21.55 6.68 21.83-.16.43-4.25.51-25.54.5-13.94 0-25.57-.14-25.84-.31-.28-.18-1.79-5.57-3.47-12.43-1.63-6.66-3.15-12.24-3.37-12.4s-3.72-.23-7.77-.18l-7.37.1-.1 12.32c-.07 9.3-.2 12.4-.55 12.62-.25.15-13.23.29-28.85.29-21.6 0-28.5-.1-28.83-.44-.34-.33-.45-6.09-.45-23.65 0-13.38-.13-23.07-.32-22.87-.26.29-10.59 36.13-12.47 43.26-.29 1.12-.77 2.4-1.06 2.86l-.53.83h-12.33c-11.55 0-12.34-.04-12.68-.68-.4-.73-1.75-5.6-8.33-29.9-2.39-8.82-4.48-16.2-4.65-16.39-.28-.3-.52 30.32-.33 41.31.05 2.48-.09 4.42-.34 4.88l-.41.78h-40.87c-40.39 0-40.87 0-41.27-.73-.26-.49-.4-6.7-.4-18.52-.02-19.15-.07-19.69-1.93-21.07-.9-.67-1.47-.75-4.4-.67-1.85.06-3.4.14-3.45.19-.04.04-.17 9.08-.28 20.08-.1 11-.3 20.16-.42 20.36-.35.57-57.19.49-57.52-.1-.15-.24-.33-5.75-.4-12.24s-.2-12.01-.29-12.27c-.12-.35-1.97-.46-7.55-.46-7.3 0-7.39.01-7.74.83-.2.46-1.6 5.96-3.14 12.23-1.53 6.27-2.96 11.62-3.18 11.89-.6.73-51.37.71-51.67-.02zm184.65-58.7-.1-6.57-.9 1.8c-1.96 3.97-6.8 7.79-11.9 9.43-.76.24-1.38.55-1.37.69 0 .13 1.48.95 3.28 1.8 4.58 2.18 7.3 4.76 9.33 8.87l1.56 3.16.1-6.3c.06-3.48.06-9.27 0-12.88zm161.8 7.06c.08-.06-.54-2.58-1.35-5.58-.82-3-1.91-7.21-2.44-9.34a175.2 175.2 0 0 0-1.84-6.81c-.48-1.62-1.4-5.02-2.05-7.56s-1.31-4.85-1.49-5.16c-.44-.77-.51 4-.38 26.98l.04 7.63 2.12.1c2.17.12 7.18-.06 7.4-.26zM73.4 73.55c0-10.39-.13-17.5-.33-17.5-.19 0-.59 1.03-.89 2.3-.3 1.26-1.33 5.29-2.29 8.93s-1.88 7.22-2.03 7.93-1.13 4.27-2.16 7.9a92.44 92.44 0 0 0-1.88 7.29c0 .6.45.65 4.8.65h4.78zm65.3 5.33c2.16-.6 2.98-2.1 3.17-5.77.32-5.96-1.25-7.64-6.94-7.41l-2.75.1-.1 6.26a68.2 68.2 0 0 0 .07 6.72c.23.59 4.55.65 6.55.1zm-7-46.14c-.33-.32-.45-3.28-.45-11.02V11.14L125.85 6c-3.26-3.1-5.29-5.3-5.13-5.56.38-.62 49.64-.6 50.26.02.33.33.45 4.42.45 16.14s-.12 15.81-.45 16.14c-.33.34-5.2.45-19.64.45s-19.3-.11-19.64-.45zm53.43 0c-.33-.33-.44-4.42-.44-16.14s.11-15.8.44-16.14c.33-.33 5.25-.44 19.88-.44 18.85 0 19.46.02 19.83.71.41.77.56 30.82.16 31.87-.2.52-2.3.58-19.83.58-14.75 0-19.7-.1-20.04-.44zm53.8.14c-.36-.23-.44-3.78-.37-16.49l.1-16.18 25.03-.1c17.47-.07 25.16.03 25.43.3.28.28.01.73-.9 1.53-.7.62-3.15 2.95-5.44 5.19l-4.14 4.06v10.56c0 7.71-.12 10.67-.44 11-.52.5-38.47.64-39.28.13z"/>
</svg>
