<svg xmlns="http://www.w3.org/2000/svg" width="800" height="800" viewBox="0 0 32 32">
    <defs>
        <linearGradient id="a" x1="836.63" x2="843.8" y1="36.2" y2="14.48"
                        gradientTransform="matrix(-.6 0 0 -.6 525.92 30.25)" gradientUnits="userSpaceOnUse">
            <stop offset="0" stop-color="#fff" stop-opacity="0"/>
            <stop offset="1" stop-color="#fff" stop-opacity=".28"/>
        </linearGradient>
    </defs>
    <path fill="#0000bf"
          d="M16 2c-1.25 3.06-2 5.06-3.4 8.02a21.88 21.88 0 0 0 3.6 3.14 14.86 14.86 0 0 1-4-2.29C10.43 14.57 7.65 19.86 2 30c5.19-3 9.01-4.65 12.7-4.97v-.83h-.84v-.84h.83v.84h1.68v-1.68h-1.68v-.83h-.83V20h.83v-.83h1.68V20h.83v.84h-.84V20H14.7v1.68h1.68v.83h.83v1.68h-.84v.78c3.98.1 8 1.78 13.64 5.02-.87-1.58-1.64-3.02-2.38-4.38a25.53 25.53 0 0 0-4.83-3.33 14.44 14.44 0 0 1 3.86 1.51C19.17 9.87 18.57 8.02 16 2Zm-5.49 17.18h1.67V20h.84v5.02h-.84v-2.5h-1.67v2.5h-.84V20h.84Zm0 .83v1.68h1.67V20Zm7.53-.83h.83V20h.84v.84h.83V20h.84v-.83h.84v5.85h-.84v-4.18h-.84v.84h-.83v-.84h-.84v4.18h-.83Z"/>
    <path fill="#fff" fill-opacity=".17"
          d="M23.88 18.64c-6.07-8.24-7.47-14.87-7.83-16.46a175.22 175.22 0 0 0 7.83 16.46Z"/>
    <path fill="url(#a)"
          d="m16.05 2.12-.45 1.1-.46 1.14-.45 1.07-.45 1.06-.46 1.06a78.18 78.18 0 0 1-1.07 2.3l-.09.19a21.87 21.87 0 0 0 3.58 3.12 14.88 14.88 0 0 1-3.99-2.28l-.14.29-.21.42-.1.22a252.2 252.2 0 0 1-3.53 6.82c3.55-2 7.38-4.89 14.34-2.4a225.6 225.6 0 0 1-3.17-6.28l-.55-1.2-.5-1.12-.45-1.08c-.15-.35-.3-.71-.43-1.07l-.11-.28-1.3-3.08Z"/>
</svg>
