<svg xmlns="http://www.w3.org/2000/svg" xml:space="preserve" width="157.9" height="39.2">
  <defs>
    <clipPath id="a" clipPathUnits="userSpaceOnUse">
      <path d="M877 0h240v234H877V0z"/>
    </clipPath>
      <clipPath id="b" clipPathUnits="userSpaceOnUse">
      <path d="M1217 264h46.6v49.8H1217V264z"/>
    </clipPath>
      <clipPath id="c" clipPathUnits="userSpaceOnUse">
      <path d="M1137 4h126.6v309.8H1137V4z"/>
    </clipPath>
      <clipPath id="d" clipPathUnits="userSpaceOnUse">
      <path d="M0 4h317v309.8H0V4z"/>
    </clipPath>
      <clipPath id="e" clipPathUnits="userSpaceOnUse">
      <path d="M347 4h150v309.8H347V4z"/>
    </clipPath>
  </defs>
    <g clip-path="url(#a)" transform="matrix(1.25,0,0,-1.25,0,39.225) scale(0.1,0.1)">
    <path fill="#3676c4"
          d="M1003.2 191.4c42.1 0 56.4-27.5 61-49.9h-125c7.8 31.5 30 49.9 64 49.9m72.8-91.6h39V119a120 120 0 0 1-28.2 80.2c-20.2 22.7-49 34.7-83.6 34.7-34.7 0-64.3-12-85.8-34.5a115.8 115.8 0 0 1-30.8-80.4C886.6 50.3 928-.5 1003.1-.2c62.5.2 96.2 35 105.4 64.3h-51a65.7 65.7 0 0 0-53.9-24.8c-37 1-65.9 27.1-64.5 60.5h137"/>
  </g>
    <g clip-path="url(#b)" transform="matrix(1.25,0,0,-1.25,0,39.225) scale(0.1,0.1)">
    <path fill="#3676c4"
          d="M1242 277.3a16 16 0 1 0 0 32 16 16 0 0 0 0-32m0 36.5a20.5 20.5 0 1 1-.1-41 20.5 20.5 0 0 1 0 41"/>
  </g>
    <path fill="#3676c4"
          d="M155.5 2.5h-.7v-.8h.7c.2 0 .3.2.3.4s-.1.4-.3.4m.8-.4c0-.4-.3-.7-.8-.7h-1.2v2.3h.5v-.9h.6l.6.9h.5l-.7-1c.3 0 .5-.3.5-.6"/>
    <g clip-path="url(#c)" transform="matrix(1.25,0,0,-1.25,0,39.225) scale(0.1,0.1)">
    <path fill="#3676c4"
          d="M1239.8 50.3a50.7 50.7 0 0 0-35.7 14.6 49.5 49.5 0 0 0-14.6 35.5v213.4h-45.7V100.5a94.1 94.1 0 0 1 28.2-67.8 97.8 97.8 0 0 1 30.7-20.7c11.6-5 24.1-7.5 37.1-7.5h24v45.8h-24"/>
  </g>
    <path fill="#3676c4"
          d="M106.3 17.6a12.2 12.2 0 0 0-11-7.4 11.4 11.4 0 0 0-9.1 4.2 11.4 11.4 0 0 0-9-4.2 11.5 11.5 0 0 0-8.4 3.6 12.4 12.4 0 0 0-3.5 8.6v16.2h5.9V22.4a6.1 6.1 0 0 1 6-6.2 6 6 0 0 1 5.6 3.8c.3.7.5 1.5.5 2.4v16.2h5.9V22.4a6.2 6.2 0 0 1 3.7-5.7 6 6 0 0 1 2.3-.5 6 6 0 0 1 5.6 3.8c.3.7.5 1.5.5 2.4v16.2h5.9V22.4c0-1.7-.3-3.3-1-4.8"/>
    <g clip-path="url(#d)" transform="matrix(1.25,0,0,-1.25,0,39.225) scale(0.1,0.1)">
    <path fill="#3676c4" d="M261 313.8.2 5.2h54.6l80 94.1h92v43.8h-54.9l96.5 113.5V5.2h45.8v308.6h-53"/>
  </g>
    <g clip-path="url(#e)" transform="matrix(1.25,0,0,-1.25,0,39.225) scale(0.1,0.1)">
    <path fill="#3676c4"
          d="M467.8 50.3A50.7 50.7 0 0 0 432 65a49 49 0 0 0-14.6 35.5V183h71.7v46.3h-71.7v84.5h-45.7v-84.5h-24V183h24v-82.5A94 94 0 0 1 400 32.7a97 97 0 0 1 67.8-28.2h22.6v45.8h-22.6"/>
  </g>
</svg>
