<svg xmlns="http://www.w3.org/2000/svg" width="686.7" height="445.3">
    <defs>
        <clipPath id="a" clipPathUnits="userSpaceOnUse">
            <path d="M0 334h515V0H0Z"/>
        </clipPath>
    </defs>
    <path fill="#f90" fill-rule="evenodd"
          d="M141.7 307 111 296v-45.2l30.7 10.5Zm5.7 0 30.7-11v-45.2l-30.7 10.5Zm-33.3-59.5 31.2-8.8L174 248l-28.8 9.8Zm-9-3.5-30.7-11v-45.1l30.7 10.4Zm5.6 0 30.8-11v-45.1l-30.8 10.4Zm-33.2-59.5 31.1-8.8 28.9 9.3-28.9 9.8Zm99.4 59.5L146 233v-45.1l30.8 10.4Zm5.6 0 30.8-11v-45.1l-30.8 10.4Zm-33.2-59.5 31.1-8.8 28.9 9.3-28.9 9.8Zm64.2-3.5-30.8-11v-45.1l30.8 10.5Zm5.6 0 30.8-11v-45.1L219 135.4Zm-33.2-59.5 31.1-8.7 29 9.2-28.9 9.8Zm99.3 59.5-30.7-11v-45.1l30.7 10.5Zm5.7 0 30.7-11v-45.1L291 135.4Zm-33.3-59.5 31.2-8.7 28.8 9.3-28.8 9.8Z"/>
    <path d="m269.6 277.6-10.3 35.9h-4.5l-8-26.7-7.4 26.7h-4.6l-10.8-36h5.6l7.8 26.8 7.5-26.7h4l8.1 26.8 8-26.8Z"/>
    <path fill="none" stroke="#000" stroke-width="1.3"
          d="m269.6 277.6-10.3 35.9h-4.5l-8-26.7-7.4 26.7h-4.6l-10.8-36h5.6l7.8 26.8 7.5-26.7h4l8.1 26.8 8-26.8Z"/>
    <g clip-path="url(#a)" transform="matrix(1.3333333,0,0,-1.3333333,0,445.33333)">
        <path d="M223.4 115.1a12 12 0 0 1-.7 4 6.9 6.9 0 0 1-2.4 3 6.4 6.4 0 0 1-4 1.3 7 7 0 0 1-5.2-2.3 9.3 9.3 0 0 1-2.5-6Zm.2-8.2 4-.8a11 11 0 0 0-4.2-5.7 12 12 0 0 0-7.3-2.3 11 11 0 0 0-8.9 4c-2.3 2.5-3.4 6-3.4 10.1a15 15 0 0 0 3.5 10.4c2.4 2.6 5.4 4 9 4 3.4 0 6.3-1.3 8.4-3.7 2.1-2.4 3.2-6 3.3-10.9h-19.6c0-4 .9-6.8 2.6-8.2a8.3 8.3 0 0 1 5.4-2.2c3.4 0 5.8 1.8 7.2 5.3"/>
        <path fill="none" stroke="#000"
              d="M223.4 115.1a12 12 0 0 1-.7 4 6.9 6.9 0 0 1-2.4 3 6.4 6.4 0 0 1-4 1.3 7 7 0 0 1-5.2-2.3 9.3 9.3 0 0 1-2.5-6Zm.2-8.2 4-.8a11 11 0 0 0-4.2-5.7 12 12 0 0 0-7.3-2.3 11 11 0 0 0-8.9 4c-2.3 2.5-3.4 6-3.4 10.1a15 15 0 0 0 3.5 10.4c2.4 2.6 5.4 4 9 4 3.4 0 6.3-1.3 8.4-3.7 2.1-2.4 3.2-6 3.3-10.9h-19.6c0-4 .9-6.8 2.6-8.2a8.3 8.3 0 0 1 5.4-2.2c3.4 0 5.8 1.8 7.2 5.3z"/>
        <path d="M237.7 109.4c.2-2.7 1-4.7 2.5-6a7.6 7.6 0 0 1 4.8-1.8 6 6 0 0 1 5.1 2.7 13 13 0 0 1 2 7.6c0 3.5-.6 6.2-1.9 8.2a6 6 0 0 1-5.2 3c-1.8 0-3.4-.7-4.8-2.1a9 9 0 0 1-2.5-5.5ZM235.5 99h-2v36.3h4.2v-13.9c1.9 3.5 4.5 5.3 8 5.3 3 0 5.6-1.3 7.7-3.7 2-2.4 3-6 3-10.6 0-4-1-7.4-3-10a9.4 9.4 0 0 0-8-4.2c-3.6 0-6.4 1.8-8.4 5.2z"/>
        <path fill="none" stroke="#000"
              d="M237.7 109.4c.2-2.7 1-4.7 2.5-6a7.6 7.6 0 0 1 4.8-1.8 6 6 0 0 1 5.1 2.7 13 13 0 0 1 2 7.6c0 3.5-.6 6.2-1.9 8.2a6 6 0 0 1-5.2 3c-1.8 0-3.4-.7-4.8-2.1a9 9 0 0 1-2.5-5.5ZM235.5 99h-2v36.3h4.2v-13.9c1.9 3.5 4.5 5.3 8 5.3 3 0 5.6-1.3 7.7-3.7 2-2.4 3-6 3-10.6 0-4-1-7.4-3-10a9.4 9.4 0 0 0-8-4.2c-3.6 0-6.4 1.8-8.4 5.2z"/>
        <path d="m267.2 105.9 4 .8c.9-3.4 3.7-5 8.4-5a8 8 0 0 1 4.4 1.1c1.2.8 1.8 1.9 1.8 3.3 0 2.1-1.5 3.4-4.6 4l-5.7 1c-2.2.5-4 1.3-5.3 2.6a6.5 6.5 0 0 0-2 5c0 2.2 1 4 2.8 5.6a11 11 0 0 0 7.2 2.3c5.8 0 9.4-2.3 10.8-6.9l-3.8-.8c-1.1 2.8-3.4 4.2-6.8 4.2-1.7 0-3.1-.4-4.2-1-1-.8-1.6-1.7-1.6-3 0-2 1.4-3.2 4.1-3.7l5.3-1c5.5-1 8.2-3.7 8.2-8 0-2.4-1-4.4-3-6a13.7 13.7 0 0 0-8.2-2.3c-6.4 0-10.3 2.6-11.8 7.8"/>
        <path fill="none" stroke="#000"
              d="m267.2 105.9 4 .8c.9-3.4 3.7-5 8.4-5a8 8 0 0 1 4.4 1.1c1.2.8 1.8 1.9 1.8 3.3 0 2.1-1.5 3.4-4.6 4l-5.7 1c-2.2.5-4 1.3-5.3 2.6a6.5 6.5 0 0 0-2 5c0 2.2 1 4 2.8 5.6a11 11 0 0 0 7.2 2.3c5.8 0 9.4-2.3 10.8-6.9l-3.8-.8c-1.1 2.8-3.4 4.2-6.8 4.2-1.7 0-3.1-.4-4.2-1-1-.8-1.6-1.7-1.6-3 0-2 1.4-3.2 4.1-3.7l5.3-1c5.5-1 8.2-3.7 8.2-8 0-2.4-1-4.4-3-6a13.7 13.7 0 0 0-8.2-2.3c-6.4 0-10.3 2.6-11.8 7.8Z"/>
        <path d="M312.3 115.1c0 1.5-.3 2.9-.8 4a6.9 6.9 0 0 1-2.3 3 6.4 6.4 0 0 1-4 1.3 7 7 0 0 1-5.2-2.3 9.3 9.3 0 0 1-2.5-6Zm.2-8.2 4-.8a11 11 0 0 0-4.2-5.7 12 12 0 0 0-7.3-2.3c-3.7 0-6.6 1.3-9 4a15 15 0 0 0-3.3 10.1 15 15 0 0 0 3.5 10.4c2.4 2.6 5.3 4 9 4a11 11 0 0 0 8.4-3.7c2.1-2.4 3.2-6 3.3-10.9h-19.6c0-4 .9-6.8 2.6-8.2a8.3 8.3 0 0 1 5.4-2.2c3.4 0 5.8 1.8 7.2 5.3"/>
        <path fill="none" stroke="#000"
              d="M312.3 115.1c0 1.5-.3 2.9-.8 4a6.9 6.9 0 0 1-2.3 3 6.4 6.4 0 0 1-4 1.3 7 7 0 0 1-5.2-2.3 9.3 9.3 0 0 1-2.5-6Zm.2-8.2 4-.8a11 11 0 0 0-4.2-5.7 12 12 0 0 0-7.3-2.3c-3.7 0-6.6 1.3-9 4a15 15 0 0 0-3.3 10.1 15 15 0 0 0 3.5 10.4c2.4 2.6 5.3 4 9 4a11 11 0 0 0 8.4-3.7c2.1-2.4 3.2-6 3.3-10.9h-19.6c0-4 .9-6.8 2.6-8.2a8.3 8.3 0 0 1 5.4-2.2c3.4 0 5.8 1.8 7.2 5.3z"/>
        <path d="M325.6 98.9h-4.2v27h3.7v-6.4c1.2 3 2.5 4.9 3.9 5.8 1.3.8 2.6 1.3 4 1.3l1.6-.1v-4h-.8c-2.3 0-4.3-.9-5.8-2.6-1.5-1.7-2.3-4-2.4-6.8Z"/>
        <path fill="none" stroke="#000"
              d="M325.6 98.9h-4.2v27h3.7v-6.4c1.2 3 2.5 4.9 3.9 5.8 1.3.8 2.6 1.3 4 1.3l1.6-.1v-4h-.8c-2.3 0-4.3-.9-5.8-2.6-1.5-1.7-2.3-4-2.4-6.8Z"/>
        <path d="M360.7 125.8 351.4 99H347l-9.6 27h4.6l7.5-22 7.4 22Z"/>
        <path fill="none" stroke="#000" d="M360.7 125.8 351.4 99H347l-9.6 27h4.6l7.5-22 7.4 22Z"/>
        <path stroke="#000" d="M368.4 98.9h-4.2v27h4.2zm0 31.7H364v4.6h4.5z"/>
        <path d="m390.3 108.3 3.8-.6a12 12 0 0 0-3.6-7 9.7 9.7 0 0 0-6.8-2.6 9.7 9.7 0 0 0-8.5 4.2c-2 2.7-3 6-3 10s1.1 7.5 3.2 10.2c2 2.7 4.8 4 8.3 4 3 0 5.3-.8 7-2.6 1.8-1.7 3-4 3.4-6.8l-3.8-.7c-.7 4.5-2.9 6.7-6.4 6.7a6 6 0 0 1-5.4-3 14 14 0 0 1-1.8-7.6c0-3.4.6-6.1 1.8-8 1.3-2 3-2.9 5.2-2.9 3.5 0 5.7 2.3 6.6 6.7"/>
        <path fill="none" stroke="#000"
              d="m390.3 108.3 3.8-.6a12 12 0 0 0-3.6-7 9.7 9.7 0 0 0-6.8-2.6 9.7 9.7 0 0 0-8.5 4.2c-2 2.7-3 6-3 10s1.1 7.5 3.2 10.2c2 2.7 4.8 4 8.3 4 3 0 5.3-.8 7-2.6 1.8-1.7 3-4 3.4-6.8l-3.8-.7c-.7 4.5-2.9 6.7-6.4 6.7a6 6 0 0 1-5.4-3 14 14 0 0 1-1.8-7.6c0-3.4.6-6.1 1.8-8 1.3-2 3-2.9 5.2-2.9 3.5 0 5.7 2.3 6.6 6.7z"/>
        <path d="M417.5 115.1c0 1.5-.3 2.9-.8 4a6.9 6.9 0 0 1-2.3 3 6.4 6.4 0 0 1-4 1.3 7 7 0 0 1-5.2-2.3 9.3 9.3 0 0 1-2.5-6Zm.2-8.2 4-.8a11 11 0 0 0-4.2-5.7 12 12 0 0 0-7.3-2.3c-3.7 0-6.6 1.3-9 4a15 15 0 0 0-3.3 10.1 15 15 0 0 0 3.5 10.4c2.4 2.6 5.3 4 9 4 3.4 0 6.3-1.3 8.4-3.7 2.1-2.4 3.2-6 3.3-10.9h-19.6c0-4 .9-6.8 2.6-8.2a8.3 8.3 0 0 1 5.4-2.2c3.4 0 5.8 1.8 7.2 5.3"/>
        <path fill="none" stroke="#000"
              d="M417.5 115.1c0 1.5-.3 2.9-.8 4a6.9 6.9 0 0 1-2.3 3 6.4 6.4 0 0 1-4 1.3 7 7 0 0 1-5.2-2.3 9.3 9.3 0 0 1-2.5-6Zm.2-8.2 4-.8a11 11 0 0 0-4.2-5.7 12 12 0 0 0-7.3-2.3c-3.7 0-6.6 1.3-9 4a15 15 0 0 0-3.3 10.1 15 15 0 0 0 3.5 10.4c2.4 2.6 5.3 4 9 4 3.4 0 6.3-1.3 8.4-3.7 2.1-2.4 3.2-6 3.3-10.9h-19.6c0-4 .9-6.8 2.6-8.2a8.3 8.3 0 0 1 5.4-2.2c3.4 0 5.8 1.8 7.2 5.3z"/>
        <path d="m424.4 105.9 4 .8c1-3.4 3.7-5 8.5-5a8 8 0 0 1 4.4 1.1c1.2.8 1.8 1.9 1.8 3.3 0 2.1-1.5 3.4-4.6 4l-5.7 1c-2.2.5-4 1.3-5.3 2.6a6.5 6.5 0 0 0-2 5c0 2.2 1 4 2.7 5.6a11 11 0 0 0 7.3 2.3c5.8 0 9.4-2.3 10.8-6.9l-3.9-.8c-1 2.8-3.3 4.2-6.7 4.2-1.7 0-3.1-.4-4.2-1-1.1-.8-1.7-1.7-1.7-3 0-2 1.4-3.2 4.2-3.7l5.3-1c5.4-1 8.2-3.7 8.2-8 0-2.4-1-4.4-3-6a13.7 13.7 0 0 0-8.2-2.3c-6.4 0-10.3 2.6-11.9 7.8"/>
        <path fill="none" stroke="#000"
              d="m424.4 105.9 4 .8c1-3.4 3.7-5 8.5-5a8 8 0 0 1 4.4 1.1c1.2.8 1.8 1.9 1.8 3.3 0 2.1-1.5 3.4-4.6 4l-5.7 1c-2.2.5-4 1.3-5.3 2.6a6.5 6.5 0 0 0-2 5c0 2.2 1 4 2.7 5.6a11 11 0 0 0 7.3 2.3c5.8 0 9.4-2.3 10.8-6.9l-3.9-.8c-1 2.8-3.3 4.2-6.7 4.2-1.7 0-3.1-.4-4.2-1-1.1-.8-1.7-1.7-1.7-3 0-2 1.4-3.2 4.2-3.7l5.3-1c5.4-1 8.2-3.7 8.2-8 0-2.4-1-4.4-3-6a13.7 13.7 0 0 0-8.2-2.3c-6.4 0-10.3 2.6-11.9 7.8Z"/>
        <path fill-rule="evenodd"
              d="M330 183.3v6.5c0 1 .7 1.6 1.6 1.6h29c.9 0 1.6-.6 1.6-1.6v-5.5c0-1-.8-2.2-2.2-4.1l-15-21.4c5.6.1 11.5-.7 16.5-3.6 1.2-.6 1.5-1.6 1.6-2.5v-7c0-.9-1-2-2.1-1.4-9 4.7-20.8 5.2-30.7 0-1-.6-2 .5-2 1.5v6.5c0 1 0 2.9 1 4.5l17.4 25h-15.1c-1 0-1.7.6-1.7 1.5M226.2 143h-8.8c-.8 0-1.5.6-1.6 1.4v45.3c0 .9.8 1.6 1.7 1.6h8.2c.9 0 1.6-.7 1.6-1.5V184h.2c2.2 5.7 6.2 8.4 11.6 8.4 5.5 0 9-2.7 11.5-8.4 2 5.7 7 8.4 12.1 8.4 3.7 0 7.8-1.5 10.2-5 2.8-3.8 2.3-9.3 2.3-14.2v-28.5c0-1-.8-1.6-1.7-1.6h-8.9c-.8 0-1.5.7-1.5 1.6v24c0 1.9.1 6.6-.3 8.4-.6 3-2.6 4-5.2 4a5.8 5.8 0 0 1-5.2-3.8c-1-2.3-.9-6-.9-8.6v-24c0-1-.7-1.6-1.7-1.6H241c-.8 0-1.5.7-1.5 1.6v24c0 5 .8 12.4-5.5 12.4s-6-7.2-6-12.4v-24c0-1-.8-1.6-1.8-1.6m157.4 38.8c-6.5 0-6.9-8.9-6.9-14.4s0-16.2 6.8-16.2 7.1 8.4 7.1 14.2c0 3.8-.2 8.4-1.3 12-1 3.1-3 4.4-5.7 4.4m-.1 10.4c13 0 20-11.3 20-25.5 0-13.8-7.8-24.8-20-24.8-12.7 0-19.7 11.2-19.7 25.2 0 14.1 7 25 19.7 25m38.8-49.2h-8.8c-.9 0-1.6.7-1.6 1.6v45.2c0 .9.8 1.5 1.7 1.5h8.2c.7 0 1.4-.5 1.5-1.2v-7h.2c2.5 6.2 6 9.2 12 9.2 4 0 7.8-1.5 10.3-5.4 2.3-3.6 2.3-9.7 2.3-14v-28.5c0-.8-.8-1.4-1.7-1.4h-8.8c-.8 0-1.5.6-1.6 1.4v24.5c0 5 .6 12.2-5.5 12.2a5.8 5.8 0 0 1-5.1-3.6 20.1 20.1 0 0 1-1.4-8.5v-24.4c0-1-.8-1.6-1.7-1.6m-105.6 0c-.6-.5-1.4-.5-2-.1-3 2.4-3.5 3.5-5.1 5.8-4.9-4.9-8.3-6.4-14.6-6.4-7.4 0-13.2 4.6-13.2 13.8a15 15 0 0 0 9.4 14.4c4.8 2 11.5 2.5 16.6 3v1.2c0 2 .2 4.6-1 6.4-1.1 1.6-3.2 2.3-5 2.3-3.4 0-6.3-1.8-7-5.3-.2-.8-.8-1.6-1.6-1.7l-8.6 1c-.7.1-1.5.7-1.3 1.8 2 10.4 11.3 13.5 19.7 13.5 4.3 0 10-1.1 13.3-4.4 4.3-4 3.9-9.3 3.9-15.1v-13.8c0-4.1 1.7-6 3.3-8.2.6-.8.7-1.7 0-2.3l-6.8-5.8Zm-8.9 21.6c0-3.5.1-6.3-1.6-9.4-1.4-2.5-3.7-4-6.1-4-3.4 0-5.4 2.6-5.4 6.4 0 7.5 6.7 8.9 13.1 8.9zM202.1 143c-.5-.5-1.4-.5-2-.1-3 2.4-3.5 3.5-5 5.8-5-4.9-8.4-6.4-14.6-6.4-7.5 0-13.2 4.6-13.2 13.8a15 15 0 0 0 9.4 14.4c4.8 2 11.4 2.5 16.6 3v1.2c0 2 .1 4.6-1.1 6.4-1 1.6-3.2 2.3-5 2.3-3.3 0-6.3-1.8-7-5.3-.2-.8-.8-1.6-1.6-1.7l-8.5 1c-.7.1-1.6.7-1.3 1.8 2 10.4 11.3 13.5 19.7 13.5 4.3 0 9.9-1.1 13.2-4.4 4.3-4 4-9.3 4-15.1v-13.8c0-4.1 1.6-6 3.3-8.2.5-.8.6-1.7 0-2.3l-6.8-5.8Zm-8.8 21.6c0-3.5 0-6.3-1.7-9.4-1.4-2.5-3.6-4-6.1-4-3.4 0-5.4 2.6-5.4 6.4 0 7.5 6.8 8.9 13.2 8.9z"/>
    </g>
</svg>
