<svg xmlns="http://www.w3.org/2000/svg" width="256" height="242" preserveAspectRatio="xMidYMid">
    <defs>
        <linearGradient id="a" x1="58.97%" x2="37.19%" y1="7.41%" y2="103.76%">
            <stop offset="0%" stop-color="#114A8B"/>
            <stop offset="100%" stop-color="#0669BC"/>
        </linearGradient>
        <linearGradient id="b" x1="59.72%" x2="52.69%" y1="52.31%" y2="54.86%">
            <stop offset="0%" stop-opacity=".3"/>
            <stop offset="7.1%" stop-opacity=".2"/>
            <stop offset="32.1%" stop-opacity=".1"/>
            <stop offset="62.3%" stop-opacity=".05"/>
            <stop offset="100%" stop-opacity="0"/>
        </linearGradient>
        <linearGradient id="c" x1="37.28%" x2="62.47%" y1="4.6%" y2="99.98%">
            <stop offset="0%" stop-color="#3CCBF4"/>
            <stop offset="100%" stop-color="#2892DF"/>
        </linearGradient>
    </defs>
    <path fill="url(#a)"
          d="M85.34 0h75.76L82.46 233A12.08 12.08 0 0 1 71 241.22H12.06A12.06 12.06 0 0 1 .63 225.3L73.9 8.22A12.08 12.08 0 0 1 85.34 0Z"/>
    <path fill="#0078D4"
          d="M195.42 156.28H75.3a5.56 5.56 0 0 0-3.8 9.63l77.2 72.05c2.24 2.1 5.2 3.26 8.27 3.26H225l-29.57-84.94Z"/>
    <path fill="url(#b)"
          d="M85.34 0a11.98 11.98 0 0 0-11.47 8.38L.72 225.1a12.04 12.04 0 0 0 11.37 16.1h60.48a12.93 12.93 0 0 0 9.92-8.43l14.59-43 52.1 48.6a12.3 12.3 0 0 0 7.76 2.84h67.77l-29.73-84.94-86.64.02L161.37 0H85.34Z"/>
    <path fill="url(#c)"
          d="M182.1 8.2A12.06 12.06 0 0 0 170.67 0H86.25c5.17 0 9.77 3.3 11.42 8.2l73.27 217.1a12.06 12.06 0 0 1-11.43 15.92h84.43a12.06 12.06 0 0 0 11.43-15.92L182.1 8.2Z"/>
</svg>
