<svg xmlns="http://www.w3.org/2000/svg" width="2222" height="2500" preserveAspectRatio="xMidYMid" viewBox="0 0 256 288">
    <path fill="#A9B9CB" d="M255.99 85.67c0-4.84-1.04-9.12-3.13-12.8a24.46 24.46 0 0 0-9.26-9.02c-34.08-19.67-68.2-39.28-102.27-58.97-9.18-5.31-18.09-5.12-27.2.27-13.57 8-81.49 46.95-101.72 58.69C4.07 68.67 0 76.06 0 85.66v118.68c0 4.73 1 8.93 3 12.55 2.05 3.72 5.17 6.83 9.4 9.27 20.23 11.74 88.16 50.68 101.72 58.7 9.12 5.38 18.03 5.57 27.21.26 34.07-19.69 68.2-39.3 102.28-58.97a24.38 24.38 0 0 0 9.4-9.27c2-3.62 2.99-7.82 2.99-12.55l-.01-118.66"/>
    <path fill="#7F8B99" d="M141.1 5.13c-9.17-5.29-18.06-5.1-27.16.27-13.55 7.99-81.35 46.84-101.55 58.54C4.06 68.76 0 76.13 0 85.71v118.37c0 4.72 1 8.9 2.99 12.51a24.34 24.34 0 0 0 9.38 9.26 9008.51 9008.51 0 0 0 20.16 11.62l187.1-187.1C193.44 35.3 167.25 20.25 141.1 5.13"/>
    <path fill="#FFF" d="m154.46 126.97 39.83.28c0-16.6-16.8-57.25-64.97-57.25-30.69 0-71.95 19.51-71.95 75.61 0 56.1 40.45 74.39 71.95 74.39 51.02 0 63.21-35.3 63.21-55.25l-38-2.18s1.01 23.08-25.41 23.08c-24.4 0-28.46-29.88-28.46-40.04 0-15.45 5.5-40.24 28.46-40.24 22.97 0 25.34 21.6 25.34 21.6"/>
</svg>
