<svg xmlns="http://www.w3.org/2000/svg" width="256" height="256" preserveAspectRatio="xMidYMid">
    <rect width="256" height="256" fill="#092E20" rx="28"/>
    <path fill="#FFFFFD"
          d="M186.38 94.2v66.22c0 22.82-1.67 33.77-6.68 43.23-4.64 9.1-10.76 14.84-23.38 21.15l-26.53-12.62c12.62-5.93 18.74-11.13 22.64-19.1 4.08-8.17 5.38-17.63 5.38-42.49V94.2h28.57Zm-45.45-44.12v132.24c-14.66 2.78-25.42 3.9-37.1 3.9-34.88 0-53.06-15.77-53.06-46.01 0-29.13 19.3-48.05 49.16-48.05 4.64 0 8.16.37 12.43 1.48V50.08h28.57Zm-38.22 65.08c-14.47 0-22.82 8.9-22.82 24.49 0 15.21 7.98 23.56 22.64 23.56 3.15 0 5.75-.19 9.83-.74v-45.83a28.38 28.38 0 0 0-9.65-1.48Zm83.67-64.93v29.31H157.8v-29.3h28.57Z"/>
</svg>
