<svg xmlns="http://www.w3.org/2000/svg" width="256" height="240" preserveAspectRatio="xMidYMid">
    <defs>
        <linearGradient id="a" x1="50%" x2="50%" y1="1089.4%" y2="-159.5%">
            <stop offset="30.33%" stop-color="#473788"/>
            <stop offset="87.2%" stop-color="#2C2255"/>
        </linearGradient>
        <linearGradient id="b" x1="50%" x2="50%" y1="896.54%" y2="-352.36%">
            <stop offset="30.33%" stop-color="#473788"/>
            <stop offset="87.2%" stop-color="#2C2255"/>
        </linearGradient>
        <linearGradient id="c" x1="50%" x2="50%" y1="215.17%" y2="-166.72%">
            <stop offset="30.33%" stop-color="#473788"/>
            <stop offset="86.31%" stop-color="#2C2255"/>
        </linearGradient>
    </defs>
    <path fill="#2C2255"
          d="M70.38 153.05H31.26c5.18 17.77 14.8 33.7 28.86 47.77 22.44 22.43 49.42 33.64 80.96 33.64 6.3 0 12.42-.47 18.35-1.37 23.76-3.58 44.57-14.33 62.39-32.27 14.16-14.07 23.84-30 29.06-47.77H70.4ZM48.81 99.91H28.37a119.5 119.5 0 0 0-1.49 13.78h228.4c-.23-4.7-.74-9.28-1.5-13.78m-226.9 26.57c.24 4.7.74 9.29 1.5 13.78H253.8c.74-4.5 1.26-9.08 1.5-13.78m-4.41-39.36c-5.22-17.82-14.9-33.82-29.07-47.99-17.78-17.78-38.52-28.44-62.2-32.03-6-.91-12.17-1.39-18.54-1.39-31.54 0-58.52 11.15-80.96 33.42C46.05 53.3 36.43 69.3 31.25 87.12"/>
    <path fill="#F7941E"
          d="M20.1 120.09C20.1 59.75 65.4 9.62 124.35.8c-1.47-.05-2.93-.1-4.41-.1C53.8.7.16 54.14.16 120.08s53.63 119.4 119.79 119.4c1.48 0 2.95-.06 4.42-.11-58.96-8.82-104.28-58.95-104.28-119.3Z"/>
    <path fill="url(#a)" d="M155.73 14.23A77.82 77.82 0 0 0 153.36.45H2.64A77.75 77.75 0 0 0 .28 14.23h155.45Z"
          transform="translate(63.08 99.46)"/>
    <path fill="url(#b)" d="M155.73 27.02H.28A77.61 77.61 0 0 0 2.64 40.8h150.73a77.82 77.82 0 0 0 2.36-13.78Z"
          transform="translate(63.08 99.46)"/>
    <path fill="url(#c)" d="M78 98.64a78 78 0 0 0 70.7-45.05H7.3A78 78 0 0 0 78 98.64Z"
          transform="translate(63.08 99.46)"/>
    <path fill="#FFF"
          d="M51.84 126.48h203.29a116.51 116.51 0 0 0-.04-12.8H26.88a116.05 116.05 0 0 0-.03 12.8h24.99Zm18.08-39.36H31.25a112.6 112.6 0 0 0-2.88 12.8h224.7c-.8-4.36-1.81-8.63-3.08-12.8m-11.62 53.13h-210c.77 4.36 1.64 8.63 2.89 12.8h219.48c1.25-4.17 2.25-8.44 3.02-12.8h-15.39Z"/>
</svg>
