<svg xmlns="http://www.w3.org/2000/svg" width="120" height="60">
    <path d="M40.01 41.75V18.71h1.25v3.62a4.74 4.74 0 0 0 .41-.5 6.2 6.2 0 0 1 5.65-3.51c2.85-.09 5.17.97 6.53 3.5a11.27 11.27 0 0 1 .27 10.33c-1.27 2.85-4.4 4.26-7.75 3.74a6.27 6.27 0 0 1-5-3.3v9.16Zm1.25-14.89c.11 1.12.16 1.92.28 2.7.5 3.09 2.32 4.92 5.18 5.25a5.88 5.88 0 0 0 6.46-3.74 10.02 10.02 0 0 0-.22-8.23 5.76 5.76 0 0 0-6.07-3.36 5.6 5.6 0 0 0-5.01 4.15 28.42 28.42 0 0 0-.62 3.23ZM80.76 30a6.74 6.74 0 0 1-6.59 5.95c-5.24.26-7.7-3.22-8.1-7.23a11.6 11.6 0 0 1 1.03-6.39 7.12 7.12 0 0 1 7.41-3.97 6.8 6.8 0 0 1 6.04 5.18 34.97 34.97 0 0 1 .6 3.83h-13.8c-.25 3.64 1.7 6.57 4.48 7.28 3.45.85 6.4-.65 7.48-3.93.24-.85.67-.97 1.44-.73Zm-13.4-3.8h12.32c-.08-3.88-2.5-6.68-5.77-6.73-3.71-.06-6.39 2.65-6.55 6.74zm15.94 3.88h1.2a4.84 4.84 0 0 0 2.84 4.17 7.43 7.43 0 0 0 6.46-.17 2.9 2.9 0 0 0 1.7-2.85 2.63 2.63 0 0 0-1.77-2.63c-1.33-.5-2.74-.77-4.1-1.2a30 30 0 0 1-4.11-1.51c-2.18-1.06-2.32-5.2.15-6.52a8.69 8.69 0 0 1 8.3-.13 4.37 4.37 0 0 1 2.22 4.46h-1.04c0-.05-.1-.09-.1-.14-.12-3.31-2.9-4.33-5.88-4.04a7.8 7.8 0 0 0-2.55.77 2.55 2.55 0 0 0-1.48 2.55 2.55 2.55 0 0 0 1.7 2.4c1.31.48 2.68.79 4.03 1.16 1.08.3 2.2.5 3.25.85a3.84 3.84 0 0 1 2.64 3.47 4.1 4.1 0 0 1-2.2 4.25c-2.85 1.6-7.53 1.18-9.61-.85a5.68 5.68 0 0 1-1.66-4.04Zm28.78-6.38h-1.14c0-.15-.06-.29-.07-.41a3.7 3.7 0 0 0-3.02-3.56 7.43 7.43 0 0 0-4.77.23 2.9 2.9 0 0 0-2.1 2.76 2.67 2.67 0 0 0 2.04 2.7c1.7.52 3.45.84 5.17 1.32a14.47 14.47 0 0 1 1.66.5 4.26 4.26 0 0 1 .23 7.93 9.47 9.47 0 0 1-7.66.07 5.31 5.31 0 0 1-3.2-5.15h1.1a6.2 6.2 0 0 0 9.45 3.94 3.04 3.04 0 0 0 1.63-2.84 2.63 2.63 0 0 0-1.8-2.61c-1.32-.5-2.73-.76-4.09-1.2a30.15 30.15 0 0 1-4.14-1.48c-2.13-1.05-2.3-5.16.13-6.47a8.57 8.57 0 0 1 8.44-.1 4.45 4.45 0 0 1 2.14 4.37zM37.94 35.53a1.95 1.95 0 0 1-2.41-.92c-1.4-2.07-2.92-4.06-4.4-6.08l-.63-.85c-1.76 2.35-3.5 4.6-5.1 6.94a1.87 1.87 0 0 1-2.3.9l6.57-8.82-6.12-7.98a2.03 2.03 0 0 1 2.43.86c1.42 2.07 3 4.06 4.56 6.16 1.57-2.09 3.13-4.08 4.59-6.14a1.83 1.83 0 0 1 2.28-.85l-2.38 3.15c-1.06 1.4-2.1 2.82-3.21 4.19a.85.85 0 0 0 0 1.26l6.12 8.18zm27.93-16.89v1.2a6.17 6.17 0 0 0-6.57 6.37v9.36h-1.2V18.7h1.19v3.45c1.47-2.52 3.74-3.45 6.6-3.52zM7.33 26.59c.18-.85.3-1.78.54-2.65 1.47-5.23 7.47-7.41 11.6-4.17 2.41 1.9 3.02 4.59 2.9 7.62H8.75c-.22 5.41 3.69 8.68 8.68 7.01a5.18 5.18 0 0 0 3.3-3.67c.26-.85.69-1 1.5-.75a6.91 6.91 0 0 1-3.3 5.05 8 8 0 0 1-9.33-1.2 8.38 8.38 0 0 1-2.09-4.91c0-.29-.1-.58-.17-.85v-1.48Zm1.44-.37h12.31c-.07-3.92-2.55-6.7-5.85-6.73-3.68-.05-6.3 2.67-6.47 6.72Z"/>
</svg>
