<svg xmlns="http://www.w3.org/2000/svg" width="256" height="236" preserveAspectRatio="xMidYMid">
    <path fill="#E24329" d="m128.07 236.07 47.1-144.97h-94.2l47.1 144.97Z"/>
    <path fill="#FC6D26" d="M128.07 236.07 80.97 91.1H14.96l113.11 144.97Z"/>
    <path fill="#FCA326" d="M14.96 91.1.64 135.16a9.75 9.75 0 0 0 3.54 10.9l123.9 90.01L14.95 91.1Z"/>
    <path fill="#E24329" d="M14.96 91.1h66.01L52.6 3.8a4.88 4.88 0 0 0-9.27 0L14.96 91.1Z"/>
    <path fill="#FC6D26" d="m128.07 236.07 47.1-144.97h66.02L128.07 236.07Z"/>
    <path fill="#FCA326" d="m241.2 91.1 14.3 44.06a9.75 9.75 0 0 1-3.53 10.9l-123.9 90.01L241.2 91.1Z"/>
    <path fill="#E24329" d="M241.2 91.1h-66.02l28.37-87.3a4.88 4.88 0 0 1 9.27 0l28.38 87.3Z"/>
</svg>
