<svg xmlns="http://www.w3.org/2000/svg" width="626.04" height="636.89">
    <path fill="#35a85b" fill-rule="evenodd" d="M0 579.65V126.33A47.75 47.75 0 0 1 47.74 78.6h453.3L0 579.65"/>
    <path fill="#fadb2a" fill-rule="evenodd"
          d="M0 589.16v-9.51L501.03 78.6h9.52a47.76 47.76 0 0 1 47.75 47.73v9.53L57.25 636.89h-9.51A47.75 47.75 0 0 1 0 589.16"/>
    <path fill="#5881ca" fill-rule="evenodd" d="M57.25 636.9 279.15 415l221.88 221.9Z"/>
    <path fill="#fff" fill-rule="evenodd"
          d="M501.03 636.9 275.75 411.6 333 354.37l225.3 225.28v9.5a47.76 47.76 0 0 1-47.75 47.74h-9.52"/>
    <path fill="#c1c0be" fill-rule="evenodd" d="m558.3 579.65-221.9-221.9 221.9-221.9Z"/>
    <path fill="#ebece9"
          d="M99.58 140.32c28.4-13 63.94-7.7 87.01 13.57a1128.06 1128.06 0 0 1-22.04 21.7c-23.08-22.9-66.43-12.03-77.24 18.26-14.14 29.8 9.36 69 42.61 69.42 21.77 2.54 43.47-12.03 48.06-33.71-15.2.03-30.37-.11-45.55.11-.42-9.35-.48-18.73-.28-28.12 25.38.66 51.4-1.45 76.4 1.03 1.92 18.57.6 38.27-9.38 54.56-15.66 29.15-52.62 41.87-83.9 34.5-38.68-8-67.63-47.68-62.35-86.98 2.7-27.72 21.45-52.85 46.66-64.34"/>
    <path fill="#e03f40"
          d="M457.25 98.84c-21.46 4.8-39.47 23.77-41.28 45.99-2.25 20.68 9.85 41.66 28.4 50.8 20.09 10.63 46.47 7.37 63.26-8 15.67-13.86 21.37-37.8 13.2-57.17-9.7-24.24-38.45-38.05-63.58-31.62zM460.78.01h18.15c45.23 2.58 89.46 24.68 116.88 61.04 17.95 22.96 27.97 51.46 30.22 80.4v10.75c-1.05 56.12-36.96 102.18-68.05 145.82-34.9 49.33-67.16 103.07-76.1 163.86-2.4 10.3.47 24.72-11.83 29.37-2.9-2.26-6.26-4.12-8.3-7.27-3.64-33.98-12.13-67.55-26.63-98.58-16.45-36.16-39.36-68.84-62.63-100.82-14.16-19.18-27.52-39.02-38.57-60.18-17.37-31.7-23.83-69.16-16.73-104.74 5.81-28.08 20.51-54.1 40.86-74.23C385.46 18.63 422.54 2.4 460.78.01"/>
    <path fill="#762328"
          d="M457.25 98.84c25.13-6.43 53.88 7.38 63.57 31.62 8.18 19.38 2.48 43.31-13.2 57.17-16.78 15.37-43.16 18.63-63.26 8-18.54-9.14-30.64-30.12-28.39-50.8 1.81-22.22 19.82-41.2 41.28-45.99"/>
</svg>
