<svg xmlns="http://www.w3.org/2000/svg" xml:space="preserve" id="Layer_1" x="0" y="0" version="1.1"
     viewBox="0 0 1080 1080">
  <style>
    .st0{fill:#fff}
  </style>
    <path d="M1080 1080H0V0h1080v1080z" class="st0"/>
    <path fill="#d00000" d="M1062 1062H18V18h1044v1044z"/>
    <path d="M303 823.7a4 4 0 0 0 1 2.4l18 17.9a4 4 0 0 0 2.4 1h61.2a4 4 0 0 0 2.4-1l17.9-17.9a4 4 0 0 0 1-2.4v-194c0-.9.5-2 1-2.5l77.7-74.2c.6-.5 1.4-.4 1.9.2l196.2 290.6a3 3 0 0 0 2.3 1.2h86.6c.8 0 1.7-.6 2.1-1.3l15.7-30.4c.4-.7.3-1.8-.1-2.5L560.6 478c-.5-.6-.4-1.6.2-2.2l211.1-210.2a4 4 0 0 0 1-2.4v-3.9c0-.8-.2-2-.5-2.7l-12.2-28a2.4 2.4 0 0 0-2-1.3h-85.6a4 4 0 0 0-2.5 1L407.8 491.6c-.5.5-1 .3-1-.5V249.6a4 4 0 0 0-1-2.5l-17.5-18.8c-.5-.6-1.6-1-2.4-1h-61.6c-.8 0-1.9.4-2.4 1l-18 19.4c-.5.6-1 1.7-1 2.5v573.5z"
          class="st0"/>
</svg>
