<svg xmlns="http://www.w3.org/2000/svg" baseProfile="tiny" version="1.2" viewBox="0 0 128 128">
    <g fill="none" stroke-width="2">
        <path stroke="#949494" stroke-opacity=".9" d="M125.1 116.5q0 5.2-3.4 7.3-2 1.3-7.1 1.3l-107-.1"
              vector-effect="non-scaling-stroke"/>
        <path stroke="#afaeae" stroke-opacity=".7" d="m7.5 125-3-2.7" vector-effect="non-scaling-stroke"/>
        <path stroke="#cfa983" d="M5 24.2V118q0 .8.5 1.3" vector-effect="non-scaling-stroke"/>
        <path stroke="#e5b48b" d="M5.5 119.3q.5 2.4 2.7 3" vector-effect="non-scaling-stroke"/>
        <path stroke="#f9b890" d="m8.2 122.3 1.1.7" vector-effect="non-scaling-stroke"/>
        <path stroke="#fac28f" d="M9.3 123h42.3" vector-effect="non-scaling-stroke"/>
        <path stroke="#fdd08c" d="M51.5 123H63" vector-effect="non-scaling-stroke"/>
        <path stroke="#fabe8f" d="M62.9 123h3.3" vector-effect="non-scaling-stroke"/>
        <path stroke="#fdd08c" d="M66.2 123h11" vector-effect="non-scaling-stroke"/>
        <path stroke="#fac28f" d="M77.1 123h38q3.7 0 5.2-.9 2.7-1.5 2.7-5.3V91.2" vector-effect="non-scaling-stroke"/>
        <path stroke="#f9b890" d="m123 91.2-.1-42" vector-effect="non-scaling-stroke"/>
        <path stroke="#f4aa90" d="m122.9 49.2-.1-41" vector-effect="non-scaling-stroke"/>
        <path stroke="#c39582" d="M122.8 8.1q-2.5-3-4.8-3L10.5 5Q7.2 5 5.8 7.5q-.7 1.4-.8 4.7v12"
              vector-effect="non-scaling-stroke"/>
        <path stroke="#b83f12" d="m122.8 8.1-5-.2" vector-effect="non-scaling-stroke"/>
        <path stroke="#a1370c" d="M117.7 7.9q-1.7 0-3.3-.4h-1.8l-1.8-.2q-1.3-.4-2.8-.4-18.4.3-36.9.3L17.3 7q-2.7 0-6 .9"
              vector-effect="non-scaling-stroke"/>
        <path stroke="#b83f12" d="M11.3 8q-1.5.2-1.8 1a1.1 1 75 0 1-.2.5l-2.7 2.8" vector-effect="non-scaling-stroke"/>
        <path stroke="#933f05" d="M6.6 12.4 5.9 24q0 .5-.5.3H5" vector-effect="non-scaling-stroke"/>
        <path stroke="#b55e0e" d="m6.4 34.3-.3 82.5q0 1.3-.6 2.5" vector-effect="non-scaling-stroke"/>
        <path stroke="#ee6320" d="M122.9 49.2q-3.4 1.1-5.2-1.5-.4-.5 0-1 1.5-1.6-.6-3.1a1 1 22.5 0 0-1.5.6l-.4.8"
              vector-effect="non-scaling-stroke"/>
        <path stroke="#a74010" d="M115.2 45q-.6-6.3-.3-12.5.4-6.1 0-9.5-.3-3-3-2.8" vector-effect="non-scaling-stroke"/>
        <path stroke="#f4aa90" d="M111.8 20.3c-.7-4.8-5-4.3-8.4-4.3H22.6c-3.5 0-6.5.9-6.5 4.8v13.5"
              vector-effect="non-scaling-stroke"/>
        <path stroke="#ee6320" d="M16 34.3q-3.8-1.2-7.5-.3" vector-effect="non-scaling-stroke"/>
        <path stroke="#da5f1b" d="M8.5 34q-.3-.9-2 .3" vector-effect="non-scaling-stroke"/>
        <path stroke="#c45413" d="M6.4 34.3q.6-8.6.2-14.3 0-1.3.4-2a1.5 1.4-29.3 0 0 .1-.6q.2-2.6-.5-5"
              vector-effect="non-scaling-stroke"/>
        <path stroke="#d24c1a"
              d="M117.7 7.9 99 8.9 98 9q-.5.2-1.2.2-8.9.3-19.4 0c-5.5-.2-10.6.1-15.9 0-5.9-.1-11.7.3-17.5-.1-4.5-.3-9.2 1-14-.1q-2.4-.5-5.4-.4-5.7.2-7.9.1-2.4 0-5.4-.8"
              vector-effect="non-scaling-stroke"/>
        <path stroke="#df6d1b"
              d="M8.5 34v6q0 .6.6.7.4 0 .8.4t0 .8Q8.1 44 9.2 47q.7 1.5-1 2.2-.5.2-.4.8.5 2 .2 4.1a1.3 1.3 32.4 0 0 .2.9q.5.8.5 1.5-.8 19.4-.5 38.8l.1.9c.3 1-.2 2.3 0 3.5.2 2-.4 3.7-.1 5.6q.2 1.4 0 2.9-.3 3.5.1 7.2c.3 2-.5 3.7.2 5.5v.7q0 .3-.3.7"
              vector-effect="non-scaling-stroke"/>
        <path stroke="#ac4f10" d="m115.2 45-.2 17" vector-effect="non-scaling-stroke"/>
        <path stroke="#824003"
              d="m115 62-.6 48.5a3.6 3.6 87.2 0 1-3.2 3.5q-1.7.2-3.5.1-2-.1-4 .4-1.8.4-4 0-8-1-19.6 0c-1.5 0-2.4-.5-3.8-1.1"
              vector-effect="non-scaling-stroke"/>
        <path stroke="#ad580f" d="m76.3 113.4-.7-.4" vector-effect="non-scaling-stroke"/>
        <path stroke="#b0670d" d="M75.6 113q-.4-.7-.8-.5" vector-effect="non-scaling-stroke"/>
        <path stroke="#ad5510" d="M74.8 112.5q-.3-.6-.2-.8" vector-effect="non-scaling-stroke"/>
        <path stroke="#b29680" d="M111.8 20.3v87a4.5 4.5 0 0 1-4.5 4.5H74.6" vector-effect="non-scaling-stroke"/>
        <path stroke="#fabe8f" d="m74.6 111.8-2.8-2.9" vector-effect="non-scaling-stroke"/>
        <path stroke="#fdd08c" d="m71.8 109-.2-11" vector-effect="non-scaling-stroke"/>
        <path stroke="#fabe8f" d="M71.6 98v-3.5" vector-effect="non-scaling-stroke"/>
        <path stroke="#fdd08c" d="M71.5 94.5v-3.7a2.5 2.5 0 0 1 2.5-2.5h3.6" vector-effect="non-scaling-stroke"/>
        <path stroke="#fabe8f" d="M77.6 88.3h3.6" vector-effect="non-scaling-stroke"/>
        <path stroke="#fac28f" d="M81.2 88.2h5a2.2 2.2-.4 0 0 2-2.2v-2.8" vector-effect="non-scaling-stroke"/>
        <path stroke="#fabe8f" d="M88.3 83.3v-6.8" vector-effect="non-scaling-stroke"/>
        <path stroke="#fdd08c" d="M88.3 76.5V73" vector-effect="non-scaling-stroke"/>
        <path stroke="#fabe8f" d="M88.3 73V61.6" vector-effect="non-scaling-stroke"/>
        <path stroke="#fdd08c" d="M88.3 61.6v-2.8" vector-effect="non-scaling-stroke"/>
        <path stroke="#fabe8f" d="m88.3 58.8.1-16.5" vector-effect="non-scaling-stroke"/>
        <path stroke="#b29680" d="M88.4 42.3q-.4-2.7-2.7-2.7H42.5a3 3 0 0 0-3 3v43.1q0 2.2 2.6 2.7"
              vector-effect="non-scaling-stroke"/>
        <path stroke="#fabe8f" d="M42.1 88.4h9" vector-effect="non-scaling-stroke"/>
        <path stroke="#fdd08c" d="M51.1 88.3q2.3-.3 4.5.3.5 0 .8.5.6 1 .4 2.4" vector-effect="non-scaling-stroke"/>
        <path stroke="#b29680" d="M56.8 91.5V107a4.9 4.9-.1 0 1-5 4.8H20.4" vector-effect="non-scaling-stroke"/>
        <path stroke="#cfa983" d="m20.3 111.9-1-.2" vector-effect="non-scaling-stroke"/>
        <path stroke="#fac28f" d="M19.4 111.7q-3.3-1.2-3.3-5.5V48.8" vector-effect="non-scaling-stroke"/>
        <path stroke="#f9b890" d="M16 48.7V34.3" vector-effect="non-scaling-stroke"/>
        <path stroke="#f47b1f"
              d="M123 91.2q-.5.5-.6 1.2-.1.7-.6.1-.7-.9-1.8-1.2-.5-.2-.5-.6 0-1-.9-1-.3 0-.2-.3.1-1-.6-1.7a1 1 0 0 0-1.6.2q-.8 1.4 0 3a1.4 1.4 35.9 0 1 .2.9q-.8 4.7-.1 9.5l-.1 1c-.3.4-.5 1-.5 1.5q.3 4.8-.6 8.9"
              vector-effect="non-scaling-stroke"/>
        <path stroke="#c96213" d="M115 112.7q.2-6.6.1-13.4c0-1.3.6-2.5.5-3.8q-.4-3.3-.3-6.5.3-13.5-.3-27"
              vector-effect="non-scaling-stroke"/>
        <path stroke="#f47b1f"
              d="M16 48.7q-1.3.8-2 .5l-.4-.1H9.8q-.5 0-.5.5.3 2.4-.2 5-.2 1 .9 1.5.5.2.1.6-1.5 1.8-1 4.5l.4 1q.4.6 0 1.2-.2.4.1.2l.3.1q.3.3-.1.4-.3 0-.5.4a.6.6 59.1 0 0 0 .4q.3 2.1-.1 4.2-.1.5.1 1l.7 1q.3.6 0 1.1-1.6 2-.4 4.6l.2 1q-.1.6-.7 1-.5.2-.3.8.6 2 .1 4-.1.6.2 1.2A4 4 0 0 1 9 88q-.6 1.5-.1 3.3.3-.5.6.3a2.2 2-57.5 0 1 0 .4q.2 1-.3 2a.7.7 62.2 0 0 0 .2l-.3 5a.6.6 0 0 0 .2.6q.9.6.7 1.6 0 .5-.4.8c-1.2 1-1.2 2.8-.3 3.9q.8.9.2 1.9-.3.5-.3 1.1.2 2.4-.2 4.8a1.3 1.3 27 0 0 .3 1.1q1 1 .2 2a3.4 2.8-52.2 0 0 .2 4q.5.5-.3 2"
              vector-effect="non-scaling-stroke"/>
        <path stroke="#f8931c" d="M77.1 123q.6-3.8 0-7.2-.1-.5-.6-.7-1.3-.5-.9-2" vector-effect="non-scaling-stroke"/>
        <path stroke="#f88f1c"
              d="M88.3 58.8q-2.5-.8-3.3 1a1.4 1.4-86.6 0 0 1.8 1.9l1.5-.1m0 11.4q-1.5-.3-2.8 0-.6.2-.8.7-.7 1.3 0 2.4.3.5.8.5h2.8"
              vector-effect="non-scaling-stroke"/>
        <path stroke="#f5811f" d="m88.3 83.3-6 .5a1.5 1.5 0 0 0-1.4 1.6l.3 2.8" vector-effect="non-scaling-stroke"/>
        <path stroke="#f88f1c"
              d="M77.6 88.3V85a1 1-82.3 0 0-.8-1c-2.2-.6-8.1-1-10.1.3q-.5.2-.5.7v8.5q0 .5.6.7 2.3.6 4.7.3m.1 3.5-4.3.4q-1.1 0-1.1 1.2v8.2q0 .6.6.9 2.4 1.1 5 .2m3 3.6-7 .3a1.6 1.6-1.3 0 0-1.6 1.6v8.5m-3.3.1-.2-8.8a1.4 1.3 6.9 0 0-1-1.3q-2-.5-3.1 1.4"
              vector-effect="non-scaling-stroke"/>
        <path stroke="#f5811f" d="M58.6 114.3q-3.4 1.7-7.6.8" vector-effect="non-scaling-stroke"/>
        <path stroke="#ca6813" d="M51 115q3.6 0 5.8-.9" vector-effect="non-scaling-stroke"/>
        <path stroke="#ad5510" d="M56.8 114.1q3-1.6 2.7-4.6-.3-3.4.3-13.8 0-1-1-3.9"
              vector-effect="non-scaling-stroke"/>
        <path stroke="#f88f1c"
              d="M58.8 91.8q1 0 1.4.8.2.4.1.8 0 1 .9 1.2a1.1 1.1 0 0 0 1.4-1q.4-4.3.1-8.6a1.4 1.4-1.3 0 0-1.4-1.3l-7.7-.1q-1.3 0-1.9 1-.6 1.2-.6 3.7"
              vector-effect="non-scaling-stroke"/>
        <path stroke="#ca6813" d="M42.5 84.4q1-3.9.5-8.4" vector-effect="non-scaling-stroke"/>
        <path stroke="#f5811f"
              d="M43 76q1.1 1.3.5 3.4-.2 1 .7.9l3-.2q.9 0 .9-1v-8.2q0-1.7-1.7-1.8l-1.6-.1q-1.6-.2-1.3 1.4.4 1.7-.4 2.6"
              vector-effect="non-scaling-stroke"/>
        <path stroke="#ca6813"
              d="m43.1 73-.3-13.4a1.6 1.6 60.2 0 1 .3-.9q.5-.8.3-1.7-.3-1-.2-2 .2-4.6-.4-9.3a1.6 1.6 0 0 1 1.5-1.8l9.7-1.2"
              vector-effect="non-scaling-stroke"/>
        <path stroke="#ca6c12"
              d="M115 112.7q-2.3 3.2-5.8 3-6.2-.6-11-.5l-19.5.1q-1.8 0-2.4-2m-56.9-1.6q.6 1.8 2 3 .9.6 1.7.6l2.2-.1h3q5.5.5 10.6.1h6q3.1 0 6-.2"
              vector-effect="non-scaling-stroke"/>
        <path stroke="#f8931c" d="M58.6 114.3q-1.3 1.2-3.4 1.8-.8.2-1.5-.2-1-.5-2-.1-.5.2-.5.7l.3 6.5"
              vector-effect="non-scaling-stroke"/>
        <path stroke="#b0670d" d="M58.8 91.8q-.6-.8-2-.3" vector-effect="non-scaling-stroke"/>
        <path stroke="#ad5510" d="M88.4 42.3q-1.7.9-4.1.7l-4.1-.4H54" vector-effect="non-scaling-stroke"/>
        <path stroke="#824003"
              d="M54 42.7q-2-.5-7-.4-3.4.2-5 1.7a1.3 1.2 71.9 0 0-.4.8q-.2 2 .7 3.7.3.5-.1 1-.5.8-.1 1.5.2.7.1 1.4-.4 2.1 0 4.4a2.8 2.8-40.3 0 1-.1 1.4q-1 2.6.3 5.5.2.5-.2.9-.6.4-.3 1 .6 1.4.4 2.7c-.3 1.2-.1 2.3 0 3.5q0 .5-.2.9-1.1 2.2.1 4.7a1.3 1.3-47.4 0 1 0 1.1v.4q-.3.4-.2.9l.5 4.6"
              vector-effect="non-scaling-stroke"/>
        <path stroke="#ad5510" d="M42.5 84.4q.5 2.6-.4 4" vector-effect="non-scaling-stroke"/>
        <path stroke="#824003"
              d="M56.8 114.1q-3.1-.2-6.2.3c-2 .3-3.5-.3-5.4 0q-2.3.3-4.2 0-7.7-.6-15.5 0-3.2.3-5.5-1.8a.4.4 41.5 0 1 0-.5q.1-.2.3-.2"
              vector-effect="non-scaling-stroke"/>
        <path stroke="#ca6c12" d="M43.1 73q-.4 1.5-.1 3" vector-effect="non-scaling-stroke"/>
        <path stroke="#ef6920"
              d="M12.3 32a2.5 2.1 62.3 0 0 .7-3.2 2.5 2.1 62.3 0 0-3-1.3 2.5 2.1 62.3 0 0-.7 3.2 2.5 2.1 62.3 0 0 3 1.3"
              vector-effect="non-scaling-stroke"/>
        <path stroke="#f5811f"
              d="M58 47.9a1.2 1.2 0 0 0 1.2-1.5L59 45a1.2 1.2 0 0 0-1-.9l-1.5-.1a1.2 1.2 0 0 0-1.3 1.3l.1 1.3a1.2 1.2 0 0 0 1.1 1l1.7.1m11.5-1.2a1.2 1.2 0 0 0 1.2 1.4h1.9a1.2 1.2 0 0 0 1.1-1.2V45a1.2 1.2 0 0 0-1.3-1.2L71 44a1.2 1.2 0 0 0-1.1 1l-.3 1.4"
              vector-effect="non-scaling-stroke"/>
        <path stroke="#fab767" d="M59 55.6q-1.2-.1-2.3.2-.5.2-.7.6-.6 1.5-.6 3" vector-effect="non-scaling-stroke"/>
        <path stroke="#faaf4e" d="M55.4 59.5q-.3 1.5.2 3" vector-effect="non-scaling-stroke"/>
        <path stroke="#faa415" d="M55.6 62.5v6.7" vector-effect="non-scaling-stroke"/>
        <path stroke="#f88f1c"
              d="M55.5 69.2q-.7.4-1.8 0a1.7 1.7-80.3 0 0-2.2 1.6V79a1.1 1.1 0 0 0 1 1.1q5 .7 9.9-.5v-.3q0-.3-.3-.3-1.8 0-3.2-1-.7-.6-.4-1.6"
              vector-effect="non-scaling-stroke"/>
        <path stroke="#ad5510"
              d="m58.5 76.3.9.8a1.4 1.4 69.6 0 0 .8.4q7 .8 13.7.2a1.5 1.4 89.8 0 0 1.3-1.4q.5-8-.1-16a2.1 2-89.8 0 0-1.7-2q-.5 0-.6 1"
              vector-effect="non-scaling-stroke"/>
        <path stroke="#faa415" d="M72.8 59.3q.2-2-.7-3.2-.3-.5-.8-.5-3.2-.4-6.1.3" vector-effect="non-scaling-stroke"/>
        <path stroke="#faaf4e" d="m65.2 55.9-6.2-.3" vector-effect="non-scaling-stroke"/>
        <path stroke="#ffd644"
              d="M65.2 55.9q.9 4-1.6 7.7-.4.5-1 .5-.4 0-.6.3c-1.5 1.6-3.6 1.2-5.5 1.2a.7.7 0 0 1-.7-.6l-.2-2.5"
              vector-effect="non-scaling-stroke"/>
        <path stroke="#ffe996" d="M55.4 59.5q0 1.4.6 2.3.2.5.8.6c1.9.1 3.8 0 4.8-2q.8-1.6.3-3.5 0-.5-.5-.7-1-.6-2.4-.6"
              vector-effect="non-scaling-stroke"/>
        <path stroke="#b27c06" d="M72.8 59.3 72.5 73a2.2 2.2 0 0 1-2.2 2H58.6" vector-effect="non-scaling-stroke"/>
        <path stroke="#fdb612" d="M58.6 75q-4.4 3-3-5.8" vector-effect="non-scaling-stroke"/>
        <path stroke="#b0670d" d="M58.5 76.3q.4-1 .1-1.2" vector-effect="non-scaling-stroke"/>
        <path stroke="#f88f1c"
              d="M62.7 99.3a.8.8 0 0 0-.9-.8h-.3a.8.8 0 0 0-.9.8v8.9a.8.8 0 0 0 .8.8h.4a.8.8 0 0 0 .9-.8v-8.9"
              vector-effect="non-scaling-stroke"/>
        <path stroke="#f8931c"
              d="M43.8 117.7a1.3 1.3 0 0 0-1.5-1l-1.1.1a1.3 1.3 0 0 0-1 1.5l.1 1a1.3 1.3 0 0 0 1.5 1l1.1-.2a1.3 1.3 0 0 0 1-1.5l-.1-1"
              vector-effect="non-scaling-stroke"/>
    </g>
    <path fill="#fff"
          d="M125.1 116.5q0 5.2-3.4 7.3-2 1.3-7.1 1.3l-107-.1-3.2-2.7Q3 120 3 117.3V14q0-5.5 1.2-7.5Q6.4 3 11 3h104.7q3.5 0 5.4 1c3.5 1.8 4 4.4 4 8.3q.3 52.1 0 104.2ZM5.1 24.2 5 118q0 .8.4 1.3.5 2.4 2.7 3l1.1.7H115q3.8 0 5.3-.9 2.7-1.5 2.7-5.3V91.2l-.1-42-.1-41Q120.3 5 118 5H10.5Q7.2 5 5.8 7.5q-.7 1.4-.8 4.7v12Z"/>
    <path fill="#872a04"
          d="m122.8 8.1-5-.2q-1.8 0-3.4-.4h-1.8l-1.8-.2q-1.3-.4-2.8-.4-18.4.3-36.9.3L17.3 7q-2.7 0-6 .9-1.5.2-1.8 1.1a1.1 1 75 0 1-.2.5l-2.7 2.8L5.9 24q0 .5-.5.3H5V12q0-3.2.8-4.6Q7.2 5 10.5 5H118q2.3 0 4.8 3.1Z"/>
    <path fill="#bb4413"
          d="M117.7 7.9 99 8.9 98 9q-.5.2-1.2.2-8.9.3-19.4 0c-5.5-.2-10.6.1-15.9 0-5.9-.1-11.7.3-17.5-.1-4.5-.3-9.2 1-14-.1q-2.4-.5-5.4-.4-5.7.2-7.9.1-2.4 0-5.4-.8 3.3-1 6-1l53.8.2q18.5 0 36.9-.3 1.5 0 2.8.4.9.2 1.8.1l1.8.1q1.6.3 3.3.4Z"/>
    <path fill="#e95420"
          d="M11.3 8q3 .7 5.4.8l8-.1q2.9-.1 5.2.4c4.9 1.1 9.6-.2 14 0 6 .5 11.7 0 17.6.2 5.3.1 10.4-.2 16 0q10.4.3 19.3 0 .7 0 1.2-.2l1-.2 18.7-1 5.1.2.1 41.1q-3.4 1.1-5.2-1.5-.4-.5 0-1 1.5-1.6-.6-3.1a1 1 22.5 0 0-1.5.6l-.4.8q-.6-6.3-.3-12.5.4-6.1 0-9.5-.3-3-3-2.8c-.8-4.7-5-4.2-8.5-4.2H22.6c-3.5 0-6.5.9-6.5 4.8v13.5q-4-1.2-7.6-.3-.3-.9-2 .3.5-8.6.1-14.3 0-1.3.4-2a1.5 1.4-29.3 0 0 .1-.6q.2-2.6-.5-5l2.7-2.8a1.1 1 75 0 0 .2-.5q.3-1 1.8-1.1Zm1 24a2.5 2.1 62.3 0 0 .7-3.2 2.5 2.1 62.3 0 0-3-1.3 2.5 2.1 62.3 0 0-.7 3.2 2.5 2.1 62.3 0 0 3 1.3Z"/>
    <path fill="#9f5306"
          d="M6.6 12.4q.7 2.4.5 5a1.5 1.4-29.3 0 1-.1.6q-.5.7-.4 2 .4 5.7-.2 14.3l-.3 82.5q0 1.3-.6 2.5-.4-.5-.4-1.3L5 24.2l.3.1q.4.2.5-.3l.7-11.6Z"/>
    <path fill="#fff"
          d="M111.8 20.3v87a4.5 4.5 0 0 1-4.5 4.5H74.6l-2.8-2.9-.2-10.8v-7.3a2.5 2.5 0 0 1 2.4-2.5h7.2l5-.1a2.2 2.2-.4 0 0 2-2.2V58.8l.2-16.5q-.4-2.7-2.7-2.7H42.5a3 3 0 0 0-3 3v43.1q0 2.2 2.6 2.7h9q2.3-.4 4.5.2.5 0 .8.5.6 1 .4 2.4V107a4.9 4.9-.1 0 1-5 4.8H20.4l-1-.1q-3.2-1.2-3.2-5.5V20.8c0-3.9 3-4.8 6.5-4.8h80.8c3.4 0 7.7-.5 8.4 4.3Z"/>
    <path fill="#652c00"
          d="M111.8 20.3q2.8-.3 3.1 2.7.4 3.4 0 9.5-.3 6.2.3 12.5l-.2 17-.6 48.5a3.6 3.6 87.2 0 1-3.2 3.5q-1.7.2-3.5.1-2-.1-4 .4-1.8.4-4 0-8-1-19.6 0c-1.5 0-2.4-.5-3.8-1.1l-.7-.4q-.4-.7-.8-.5-.3-.6-.2-.8l32.7.1a4.5 4.5 0 0 0 4.6-4.5v-87Z"/>
    <ellipse fill="#f47d1f" rx="2.5" ry="2.1" transform="translate(11.17,29.73) rotate(62.3)"/>
    <path fill="#ca6916"
          d="M8.5 34v6q0 .6.6.7.4 0 .8.4t0 .8Q8.1 44 9.2 47q.7 1.5-1 2.2-.5.2-.4.8.5 2 .2 4.1a1.3 1.3 32.4 0 0 .2.9q.5.8.5 1.5-.8 19.4-.5 38.8l.1.9c.3 1-.2 2.3 0 3.5.2 2-.4 3.7-.1 5.6q.2 1.4 0 2.9-.3 3.5.1 7.2c.3 2-.5 3.7.2 5.5v.7q0 .3-.3.7-2.2-.6-2.7-3 .6-1.2.6-2.5l.3-82.5q1.8-1.2 2-.3Z"/>
    <path fill="#f37120"
          d="M16 34.3v14.4q-1.3.8-2 .5l-.4-.1H9.8q-.5 0-.5.5.3 2.4-.2 5-.2 1 .9 1.5.5.2.1.6-1.5 1.8-1 4.5l.4 1q.4.6 0 1.2-.2.4.1.2l.3.1q.3.3-.1.4-.3 0-.5.4a.6.6 59.1 0 0 0 .4q.3 2.1-.1 4.2-.1.5.1 1l.7 1q.3.6 0 1.1-1.6 2-.4 4.6l.2 1q-.1.6-.7 1-.5.2-.3.8.6 2 .1 4-.1.6.2 1.2A4 4 0 0 1 9 88q-.6 1.5-.1 3.3.3-.5.6.3a2.2 2-57.5 0 1 0 .4q.2 1-.3 2a.7.7 62.2 0 0 0 .2l-.3 5a.6.6 0 0 0 .2.6q.9.6.7 1.6 0 .5-.4.8c-1.2 1-1.2 2.8-.3 3.9q.8.9.2 1.9-.3.5-.3 1.1.2 2.4-.2 4.8a1.3 1.3 27 0 0 .3 1.1q1 1 .2 2a3.4 2.8-52.2 0 0 .2 4q.5.5-.3 2l-1-.7.2-.7v-.7c-.7-1.8 0-3.5-.2-5.5q-.4-3.7 0-7.2.1-1.5-.1-2.9c-.3-2 .3-3.6 0-5.6-.1-1.2.4-2.5.1-3.5l-.2-.9q0-19.3.8-38.8 0-.7-.5-1.5a1.3 1.3 32.4 0 1-.2-.9q.3-2.1-.2-4.1 0-.6.4-.8 1.7-.7 1-2.2-1.1-3 .7-5.2.4-.4 0-.8l-.8-.4q-.6-.1-.6-.7V34q3.7-1 7.6.3Z"/>
    <path fill="#652c00"
          d="M88.4 42.3q-1.7.9-4.1.7l-4.1-.4H54q-2-.4-7-.3-3.4.2-5 1.7a1.3 1.2 71.9 0 0-.4.8q-.2 2 .7 3.7.3.5-.1 1-.5.8-.1 1.5.2.7.1 1.4-.4 2.1 0 4.4a2.8 2.8-40.3 0 1-.1 1.4q-1 2.6.3 5.5.2.5-.2.9-.6.4-.3 1 .6 1.4.4 2.7c-.3 1.2-.1 2.3 0 3.5q0 .5-.2.9-1.1 2.2.1 4.7a1.3 1.3-47.4 0 1 0 1.1v.4q-.3.4-.2.9l.5 4.6q.5 2.6-.4 4-2.5-.5-2.5-2.7V42.5a3 3 0 0 1 2.9-3h43.2q2.3 0 2.7 2.8Z"/>
    <path fill="#f47d1f"
          d="m88.4 42.3-.1 16.5q-2.5-.8-3.3 1a1.4 1.4-86.6 0 0 1.8 1.9l1.5-.1V73q-1.5-.3-2.8 0-.6.2-.8.7-.7 1.3 0 2.4.3.5.8.5h2.8v6.7l-6 .5a1.5 1.5 0 0 0-1.4 1.6l.3 2.8h-3.6V85a1 1-82.3 0 0-.8-1c-2.2-.6-8.1-1-10.1.3q-.5.2-.5.7v8.5q0 .5.6.7 2.3.6 4.7.3l.1 3.6-4.3.3q-1.1 0-1.1 1.2v8.2q0 .6.6.9 2.4 1.1 5 .2l2.8 2.8.2.8-7 .3a1.6 1.6-1.3 0 0-1.6 1.6v8.5H63l-.2-8.8a1.4 1.3 6.9 0 0-1-1.2q-2-.5-3.1 1.4-3.4 1.7-7.6.8 3.6 0 5.8-1 3-1.6 2.7-4.6-.3-3.4.3-13.8 0-1-1-3.9 1 0 1.4.8.2.4.1.8 0 1 .9 1.2a1.1 1.1 0 0 0 1.4-1q.4-4.3.1-8.6a1.4 1.4-1.3 0 0-1.4-1.3l-7.7-.1q-1.3 0-1.9 1-.6 1.2-.6 3.7l-9 .1q.9-1.4.4-4 1-3.9.5-8.4 1.1 1.3.5 3.4-.2 1 .7.9l3-.2q.9 0 .9-1v-8.2q0-1.7-1.7-1.8l-1.6-.1q-1.6-.2-1.3 1.4.4 1.7-.4 2.6l-.3-13.4a1.6 1.6 60.2 0 1 .3-.9q.5-.8.3-1.7-.3-1-.2-2 .2-4.6-.4-9.3a1.6 1.6 0 0 1 1.5-1.8l9.7-1.2h26.2l4 .3q2.5.1 4.2-.7ZM58 48a1.2 1.2 0 0 0 1.2-1.5L59 45a1.2 1.2 0 0 0-1-.9l-1.5-.1a1.2 1.2 0 0 0-1.3 1.3l.1 1.3a1.2 1.2 0 0 0 1.1 1l1.7.1Zm11.6-1.4a1.2 1.2 0 0 0 1.2 1.4h1.9a1.2 1.2 0 0 0 1.1-1.2V45a1.2 1.2 0 0 0-1.3-1.2L71 44a1.2 1.2 0 0 0-1.1 1l-.3 1.4Zm-10.6 9q-1.2-.1-2.3.2-.5.2-.7.6-.6 1.5-.6 3-.3 1.6.2 3.1v6.7q-.8.4-2 0a1.7 1.7-80.3 0 0-2.1 1.6V79a1.1 1.1 0 0 0 1 1.1q5 .7 9.9-.5v-.3q0-.3-.3-.3-1.8 0-3.2-1-.7-.6-.4-1.6l.9.8a1.4 1.4 69.6 0 0 .8.4q7 .8 13.7.2a1.5 1.4 89.8 0 0 1.3-1.4q.5-8-.1-16a2.1 2-89.8 0 0-1.7-2q-.5 0-.6 1 .2-2-.7-3.2-.3-.5-.8-.5-3.2-.4-6.1.3l-6.2-.3Zm3.7 43.7a.8.8 0 0 0-.9-.8h-.3a.8.8 0 0 0-.9.8v8.9a.8.8 0 0 0 .8.8h.4a.8.8 0 0 0 .9-.8v-8.9Z"/>
    <path fill="#9f5306"
          d="m54 42.7-9.7 1.2a1.6 1.6 0 0 0-1.5 1.8q.6 4.7.4 9.3l.2 2q.2 1-.3 1.7a1.6 1.6 60.2 0 0-.3 1l.3 13.3q-.4 1.5-.1 3 .6 4.5-.5 8.4l-.5-4.6.1-.9.2-.4a1.3 1.3-47.4 0 0 0-1q-1.3-2.6-.2-4.8.2-.4.2-1c-.1-1.1-.3-2.2 0-3.4q.2-1.3-.4-2.7-.3-.6.3-1 .4-.4.2-.9-1.3-3-.3-5.5a2.8 2.8-40.3 0 0 .1-1.4q-.4-2.3 0-4.4.1-.7-.1-1.4-.4-.8.1-1.4.4-.6 0-1.1-.8-1.7-.6-3.7a1.3 1.2 71.9 0 1 .4-.8q1.6-1.5 5-1.7 5-.1 7 .4Z"/>
    <path fill="#f37120"
          d="M122.9 49.2v42q-.4.5-.5 1.2-.1.7-.6.1-.7-.9-1.8-1.2-.5-.2-.5-.6 0-1-.9-1-.3 0-.2-.3.1-1-.6-1.7a1 1 0 0 0-1.6.2q-.8 1.4 0 3a1.4 1.4 35.9 0 1 .2.9q-.8 4.7-.1 9.5l-.1 1c-.3.4-.5 1-.5 1.5q.3 4.8-.6 8.9V99.3c0-1.3.6-2.5.5-3.8q-.4-3.3-.3-6.5.3-13.5-.3-27l.2-17 .4-.8a1 1 22.5 0 1 1.5-.6q2 1.5.6 3.2-.4.4 0 .9 1.8 2.6 5.2 1.5Z"/>
    <path fill="#f5841e"
          d="m58 47.9-1.7-.2a1.2 1.2 0 0 1-1-1l-.2-1.4a1.2 1.2 0 0 1 1.3-1.2l1.5.1a1.2 1.2 0 0 1 1 1l.3 1.2a1.2 1.2 0 0 1-1.2 1.5Zm11.6-1.4.3-1.5a1.2 1.2 0 0 1 1-1h1.6a1.2 1.2 0 0 1 1.3 1.1v1.6a1.2 1.2 0 0 1-1.1 1.2h-1.9a1.2 1.2 0 0 1-1.2-1.4ZM16 48.7v57.5q0 4.3 3.4 5.5.6 1.8 2 3 .9.6 1.7.6l2.2-.1h3q5.5.5 10.6.1h6q3.1 0 6-.2 4.3.9 7.7-.8-1.3 1.2-3.4 1.8-.8.2-1.5-.2-1-.5-2-.1-.5.2-.5.7l.3 6.5H9.3q.8-1.5.3-2a3.4 2.8-52.2 0 1-.2-4q.8-1-.2-2a1.3 1.3 27 0 1-.2-1q.4-2.4.2-4.8 0-.6.3-1.1.5-1-.2-2c-.8-1-1-2.8.3-3.8q.3-.3.4-.8.2-1-.7-1.6a.6.6 0 0 1-.2-.5l.3-5.1a.7.7 62.2 0 1 0-.3q.4-.8.4-1.9a2.2 2-57.5 0 0-.1-.4q-.3-.8-.5-.3H9q-.5-1.8 0-3.3a4 4 0 0 0 0-3.2q-.2-.6 0-1.2.4-2-.2-4-.2-.6.3-.9.6-.3.7-1 0-.5-.2-.9-1.2-2.6.3-4.6.4-.5 0-1L9.4 70q-.2-.4-.1-1 .4-2 0-4.1a.6.6 59.1 0 1 .1-.4q.2-.3.5-.4.4 0 0-.4 0-.1-.2 0-.3 0-.1-.3.4-.6 0-1.3-.3-.4-.4-.9-.5-2.7 1-4.5.4-.4-.1-.6-1-.4-.9-1.6.5-2.5.2-4.9 0-.5.5-.5H14q.6.4 2-.4Zm27.8 69a1.3 1.3 0 0 0-1.5-1l-1.1.1a1.3 1.3 0 0 0-1 1.5l.1 1a1.3 1.3 0 0 0 1.5 1l1.1-.2a1.3 1.3 0 0 0 1-1.5l-.1-1Z"/>
    <path fill="#ffe17c"
          d="M65.2 55.9q.9 4-1.6 7.7-.4.5-1 .5-.4 0-.6.3c-1.5 1.6-3.6 1.2-5.5 1.2a.7.7 0 0 1-.7-.6l-.2-2.5q-.5-1.5-.2-3 0 1.4.6 2.3.2.5.8.6c1.9.1 3.8 0 4.8-2q.8-1.6.3-3.5 0-.5-.5-.7-1-.6-2.4-.6l6.2.3Z"/>
    <path fill="#ffcb0b"
          d="M72.8 59.3 72.5 73a2.2 2.2 0 0 1-2.2 2H58.6q-4.4 3-3-5.8v-6.7l.2 2.5a.7.7 0 0 0 .7.6c2 0 4 .5 5.5-1.2q.3-.3.7-.3.5 0 .9-.5Q66 60 65.2 56q2.9-.7 6-.3.6 0 .9.5.9 1.2.8 3.2Z"/>
    <path fill="#fff0af"
          d="M59 55.6q1.4 0 2.4.6.4.2.5.7.5 2-.3 3.5c-1 2-3 2.1-4.9 2q-.5 0-.7-.6-.6-1-.6-2.3 0-1.6.6-3 .2-.5.7-.7 1-.3 2.3-.2Z"/>
    <path fill="#652c00"
          d="M58.5 76.3q.4-1 .1-1.2h11.7a2.2 2.2 0 0 0 2.2-2.1l.3-13.7q.1-1 .6-1a2.1 2-89.8 0 1 1.7 2q.6 8 .1 16a1.5 1.4 89.8 0 1-1.3 1.4q-6.7.5-13.7-.2a1.4 1.4 69.6 0 1-.9-.4l-.8-.8Z"/>
    <path fill="#fba119" d="M88.3 58.8v2.8h-1.5a1.4 1.4-86.6 0 1-1.8-1.9q.8-1.7 3.3-.9Z"/>
    <path fill="#9f5306"
          d="M115 62q.6 13.5.3 27-.1 3.2.3 6.5c.1 1.3-.5 2.5-.5 3.8v13.4q-2.4 3.2-5.8 3-6.3-.6-11.2-.5l-19.4.1q-1.8 0-2.4-2c1.4.7 2.3 1.3 3.8 1.1q11.6-.8 19.6.2 2.2.3 4-.1 2-.5 4-.4h3.5a3.6 3.6 87.2 0 0 3.2-3.6L115 62Z"/>
    <path fill="#f5841e"
          d="M43 76q-.3-1.5.1-3 .8-.9.4-2.6-.3-1.6 1.3-1.5l1.6.2q1.7.1 1.7 1.8v8.2q0 1-1 1l-2.9.2q-.9 0-.7-.9.6-2-.5-3.4Z"/>
    <path fill="#fba119"
          d="M55.5 69.2q-1.3 8.8 3.1 5.9.3.2 0 1.2-.4 1 .3 1.5 1.4 1 3.2 1 .3 0 .3.4v.2q-4.8 1.3-10 .6a1.1 1.1 0 0 1-.9-1v-8.2a1.7 1.7-80.3 0 1 2.2-1.6q1 .4 1.8 0ZM88.3 73v3.5h-2.8q-.5 0-.8-.4-.7-1 0-2.4.2-.5.8-.6 1.3-.4 2.8-.1Z"/>
    <path fill="#f5841e" d="M88.3 83.3V86a2.2 2.2-.4 0 1-2.2 2.2h-4.9l-.3-2.8a1.5 1.5 0 0 1 1.3-1.6l6-.5Z"/>
    <path fill="#fba119"
          d="M58.8 91.8q-.6-.8-2-.3.2-1.4-.4-2.4-.3-.4-.8-.5-2.2-.5-4.5-.3 0-2.5.6-3.6.6-1.2 1.9-1.1l7.7.1a1.4 1.4-1.3 0 1 1.4 1.3q.3 4.3-.1 8.6a1.1 1.1 0 0 1-1.4 1q-1-.3-.9-1.2.1-.4-.1-.8-.5-.8-1.4-.8Zm18.8-3.5H74a2.5 2.5 0 0 0-2.5 2.5v3.7q-2.4.3-4.7-.3-.5-.2-.5-.7V85q0-.5.4-.8c2-1.2 8-.8 10.1-.1a1 1-82.3 0 1 .7 1v3.2Z"/>
    <path fill="#f5841e"
          d="M123 91.2v25.5q0 3.9-2.7 5.4-1.5.9-5.3.9H77.1q.6-3.8 0-7.2-.1-.5-.6-.7-1.3-.5-.9-2l.7.3q.6 2 2.4 1.9l19.4-.1q4.9 0 11.2.4 3.4.3 5.8-3 .9-4 .6-8.8c0-.6.2-1 .5-1.6q.2-.4 0-.9-.6-4.8.2-9.5a1.4 1.4 35.9 0 0-.1-1q-.9-1.5-.1-2.9a1 1 0 0 1 1.6-.2q.8.7.6 1.7-.1.3.2.3 1 0 1 1 0 .4.4.6 1 .3 1.8 1.2.5.6.6-.1.1-.7.6-1.2Z"/>
    <path fill="#652c00"
          d="M58.8 91.8q1 2.9 1 4-.6 10.3-.3 13.7.2 3-2.7 4.6-3.1-.2-6.2.3c-2 .3-3.5-.3-5.4 0q-2.3.3-4.2 0-7.7-.6-15.5 0-3.2.3-5.5-1.8a.4.4 41.5 0 1 0-.5q.1-.2.3-.2h31.6a4.9 4.9-.1 0 0 4.8-5V91.6q1.5-.5 2.1.3Z"/>
    <path fill="#fba119" d="m71.6 98 .2 11q-2.6.8-5-.3-.6-.3-.6-1v-8.1q0-1.1 1-1.2l4.4-.3Z"/>
    <rect width="2.1" height="10.6" x="-1" y="-5.3" fill="#fba119" rx=".8"
          transform="translate(61.64,103.75) rotate(0.2)"/>
    <path fill="#9f5306"
          d="m19.4 111.7.9.2q-.2 0-.3.2a.4.4 41.5 0 0 0 .5q2.3 2 5.5 1.8 7.8-.6 15.5 0 1.9.3 4.2 0c1.9-.3 3.4.3 5.4 0q3-.5 6.2-.3-2.2 1-5.8 1-3 .3-6 .2h-6q-5.2.4-10.7 0-1.6-.2-3-.1h-2.2q-.9.1-1.6-.5-1.5-1.2-2.1-3Z"/>
    <path fill="#fba119"
          d="M74.8 112.5q.4-.2.8.5-.4 1.6.9 2.1.5.2.5.7.7 3.4.1 7.2H66.2v-8.6a1.6 1.6-1.3 0 1 1.6-1.6l7-.3ZM62.9 123H51.5l-.3-6.5q0-.5.5-.7 1-.4 2 .1.7.3 1.5.1 2.1-.5 3.4-1.7 1-2 3-1.4a1.4 1.3 6.9 0 1 1 1.3l.3 8.8Z"/>
    <path fill="#020201" fill-opacity=".7"
          d="M125.3 122.5q-1-.1-1.5.8l-.6.8-1.6 1.4h-.3q-.2 0-.1-.3 0-.6-.4-.2-.3.4-.8.4H95.2q-.1 0 0 0l.1.1h4.4v.4q0 .2-.2.2H88.8q-.6 0-.2-.5.3-.5 1-.4v.2H81q0 .1 0 0 2.6.2 5.2.1.4 0 .4.5v.2q-13.8.3-27.9.2-.4 0-.4.4-.3.2-.3 0 0-.3-.4-.2-2 .7-4 0-.3 0-.3.2t-.3 0v-.1q0-.2-.2-.2h-.3l-.1.1q-.3.6-.5 0l-.1-.2h-.3l-.2.3q-.1.4-.3 0 0-.2-.2-.2h-.3q-.1 0 0 .2 0 .2-.2.2h-2.9q-1.2 0-2.4-.4-1.6-.5-3 .3 0-.3-.2-.4h-.3q-.2.1-.1.4 0 .1-.1 0-1.5-.6-3 0-.3 0-.3-.2-.1-.3-.4-.3c-4.3 0-8.8-.2-13 0q-7.2.3-13.4 0-2.5-.2-3.8-1.3 53.5.2 107 0 5.2 0 7.2-1.2 3.5-2 3.4-7.3-.3 1.5.7-.6.2-.4.3 0 .4 3.5-.8 6.6Z"/>
    <rect width="3.7" height="3.5" x="-1.9" y="-1.7" fill="#fba119" rx="1.3"
          transform="translate(42.05,118.45) rotate(-9.8)"/>
    <path fill="#020101" fill-opacity=".5"
          d="m4.4 122.3 3.1 2.7q1.3 1.1 3.8 1.2 6.2.3 13.5 0c4.1-.1 8.6.2 13 .1q.2 0 .3.3 0 .2.3.2 1.5-.6 3 0 .2.1.1 0v-.3q.2-.1.4 0 .2 0 .2.3 1.4-.8 3-.3 1.2.4 2.4.4h3v-.4q.2-.1.4 0l.2.2q.1.4.3 0 0-.2.3-.3h.2l.1.2q.2.6.5 0l.1-.1h.3l.2.2v.1q.2.2.3 0 0-.3.2-.2 2.1.7 4.1 0 .3 0 .4.2 0 .2.2 0h.1q0-.4.4-.4 14 .1 27.8-.1v-.3q0-.5-.3-.5l-5.2-.2q0 .2 0 0h8.5q-.7-.2-1 .3-.4.5.2.5h10.7q.2 0 .2-.2v-.3q0-.2-.2-.2l-4.2.1h-.1q-.1-.1 0-.1H120q.5 0 .8-.4.5-.4.4.2-.1.3.1.3h.3l1.6-1.5q.4-.3.6-.7.5-1 1.5-.8-.7 2.6-2.7 4-1.4.9-4.4.9l-106.7-.2q-6.2 0-7-4.9Z"/>
</svg>
