<svg xmlns="http://www.w3.org/2000/svg" viewBox="0 0 507.83 470.86">
    <defs>
        <style>
            .b,.g{stroke-linecap:round;stroke-linejoin:round}.b{fill:#e4761b;stroke:#e4761b}.g{fill:#f6851b;stroke:#f6851b}
        </style>
    </defs>
    <path fill="#e2761b" stroke="#e2761b" stroke-linecap="round" stroke-linejoin="round"
          d="M482.09.5 284.32 147.38l36.58-86.66L482.09.5z"/>
    <path d="m25.54.5 196.18 148.27-34.79-88.05L25.54.5zm385.39 340.47-52.67 80.7 112.7 31 32.4-109.91-92.43-1.79zM4.67 342.76l32.2 109.91 112.7-31-52.67-80.7-92.23 1.79z"
          class="b"/>
    <path d="m143.21 204.62-31.41 47.51 111.9 4.97-3.97-120.25-76.52 67.77zm221.21 0-77.51-69.16-2.59 121.64 111.71-4.97-31.61-47.51zM149.57 421.67l67.18-32.8-58.04-45.32-9.14 78.12zm141.31-32.8 67.38 32.8-9.34-78.12-58.04 45.32z"
          class="b"/>
    <path fill="#d7c1b3" stroke="#d7c1b3" stroke-linecap="round" stroke-linejoin="round"
          d="m358.26 421.67-67.38-32.8 5.37 43.93-.6 18.48 62.61-29.61zm-208.69 0 62.61 29.61-.4-18.48 4.97-43.93-67.18 32.8z"/>
    <path fill="#233447" stroke="#233447" stroke-linecap="round" stroke-linejoin="round"
          d="m213.17 314.54-56.05-16.5 39.55-18.09 16.5 34.59zm81.29 0 16.5-34.59 39.75 18.09-56.25 16.5z"/>
    <path fill="#cd6116" stroke="#cd6116" stroke-linecap="round" stroke-linejoin="round"
          d="m149.57 421.67 9.54-80.7-62.21 1.79 52.67 78.91zm199.15-80.7 9.54 80.7 52.67-78.91-62.21-1.79zm47.31-88.84-111.71 4.97 10.34 57.44 16.5-34.59 39.75 18.09 45.12-45.91zm-238.91 45.91 39.75-18.09 16.3 34.59 10.53-57.44-111.9-4.97 45.32 45.91z"/>
    <path fill="#e4751f" stroke="#e4751f" stroke-linecap="round" stroke-linejoin="round"
          d="m111.8 252.13 46.91 91.42-1.59-45.51-45.32-45.91zm239.11 45.91-1.99 45.51 47.11-91.42-45.12 45.91zM223.7 257.1l-10.53 57.44 13.12 67.77 2.98-89.24-5.57-35.97zm60.62 0-5.36 35.77 2.38 89.44 13.32-67.77-10.34-57.44z"/>
    <path d="m294.66 314.54-13.32 67.77 9.54 6.56 58.04-45.32 1.99-45.51-56.25 16.5zm-137.54-16.5 1.59 45.51 58.04 45.32 9.54-6.56-13.12-67.77-56.05-16.5z"
          class="g"/>
    <path fill="#c0ad9e" stroke="#c0ad9e" stroke-linecap="round" stroke-linejoin="round"
          d="m295.65 451.28.6-18.48-4.97-4.38h-74.93l-4.57 4.38.4 18.48-62.61-29.61 21.86 17.88 44.32 30.81h76.13l44.52-30.81 21.86-17.88-62.61 29.61z"/>
    <path fill="#161616" stroke="#161616" stroke-linecap="round" stroke-linejoin="round"
          d="m290.88 388.87-9.54-6.56h-55.05l-9.54 6.56-4.97 43.93 4.57-4.38h74.93l4.97 4.38-5.37-43.93z"/>
    <path fill="#763d16" stroke="#763d16" stroke-linecap="round" stroke-linejoin="round"
          d="m490.44 156.92 16.89-81.09L482.09.5 290.88 142.41l73.54 62.21 103.95 30.41 23.06-26.83-9.94-7.15 15.9-14.51-12.32-9.54 15.9-12.13-10.53-7.95zM.5 75.83l16.89 81.09-10.73 7.95L22.56 177l-12.12 9.54 15.9 14.51-9.94 7.15 22.86 26.83 103.95-30.41 73.54-62.21L25.54.5.5 75.83z"/>
    <path d="m468.37 235.03-103.95-30.41 31.61 47.51-47.11 91.42 62.01-.79h92.43l-34.99-107.73zm-325.16-30.41L39.26 235.03 4.67 342.76H96.9l61.81.79-46.91-91.42 31.41-47.51zm141.11 52.48 6.56-114.69 30.22-81.69H186.93l29.82 81.69 6.95 114.69 2.39 36.17.2 89.04h55.05l.4-89.04 2.58-36.17z"
          class="g"/>
</svg>
