<svg xmlns="http://www.w3.org/2000/svg" width="356.64" height="339.65">
    <defs>
        <linearGradient id="b" x1="0" x2="1" y1="0" y2="0"
                        gradientTransform="scale(1828.54 -1828.54) rotate(60 1.01 -.43)" gradientUnits="userSpaceOnUse"
                        spreadMethod="pad">
            <stop offset="0" stop-color="#277eca"/>
            <stop offset=".5" stop-color="#2976c5"/>
            <stop offset="1" stop-color="#2965b8"/>
        </linearGradient>
        <clipPath id="a" clipPathUnits="userSpaceOnUse">
            <path d="M116.74 1910.57h1167.63c64.48 0 116.74-52.26 116.74-116.73V626.21c0-64.47-52.26-116.75-116.74-116.75H116.74C52.27 509.46 0 561.74 0 626.21v1167.63c0 64.47 52.27 116.73 116.74 116.73z"/>
        </clipPath>
    </defs>
    <path fill="#318dd4"
          d="M193.86 84.91h147.25c8.58 0 15.54 6.96 15.54 15.54V239.2c0 8.59-6.96 15.54-15.54 15.54H193.86a15.54 15.54 0 0 1-15.54-15.54V100.45c0-8.58 6.96-15.54 15.54-15.54"/>
    <path fill="#3bafe8"
          d="M271.73 84.91a15.22 15.22 0 0 1-4.58 10.95l-63.35 63.35-6.03 6.03c-.78.75-1.6 1.46-2.46 2.12a15.95 15.95 0 0 1-8.5 2.47 15.24 15.24 0 0 1-10.95-4.59l-69.38-69.38a15.4 15.4 0 0 1 0-21.9l69.38-69.38a15.38 15.38 0 0 1 21.75-.16l.16.16 69.38 69.38a15.22 15.22 0 0 1 4.58 10.95"/>
    <path fill="#2960ae"
          d="M271.73 254.74a84.91 84.91 0 0 1-158.45 42.46 60.62 60.62 0 0 1-4.25-8.5 72.76 72.76 0 0 1-3.23-8.49 84.92 84.92 0 0 1 89.5-109.96c2.86.24 5.7.67 8.5 1.27a85.06 85.06 0 0 1 67.93 83.22"/>
    <path fill="#2c84cb"
          d="M203.8 171.52c-2.8-.6-5.64-1.03-8.5-1.27v-2.89c.87-.66 1.69-1.37 2.47-2.12l6.03-6.03v12.31"/>
    <path fill="#39a2e0"
          d="M195.3 167.36v-66.91c0-3.92-1.52-7.7-4.24-10.53a15.1 15.1 0 0 0-11.24-5H101.9v.24-.26c0-2.93.83-5.89 2.55-8.48h83.8a15.54 15.54 0 0 1 13.76 8.5 14.18 14.18 0 0 1 1.79 7.04v67.25l-6.03 6.03c-.78.75-1.6 1.46-2.46 2.12"/>
    <path fill="#295ba0"
          d="M194.12 287.52a15.06 15.06 0 0 0 1.19-5.86V170.25c2.85.24 5.69.67 8.49 1.27v101.65a15.64 15.64 0 0 1-9.68 14.35"/>
    <path fill="#285591"
          d="M179.77 297.2h-66.5a60.62 60.62 0 0 1-4.24-8.5h79.23c2.01 0 4-.4 5.86-1.18a15.63 15.63 0 0 1-14.35 9.68"/>
    <path fill="#275085"
          d="M188.26 288.7h-79.23a72.76 72.76 0 0 1-3.23-8.49h73.97a15.65 15.65 0 0 0 15.54-15.53v16.98c0 2.01-.4 4-1.2 5.86a15.1 15.1 0 0 1-5.85 1.19m-26.73-115.04.1-.02-.1.02m.1-.02.16-.06-.16.06m.29-.1"/>
    <path fill="#2a6497" d="M195.3 170.25c-2.74-.25-5.5-.42-8.32-.42 2.95-.04 5.83-.9 8.33-2.47v2.89"/>
    <path fill="#2d78a7"
          d="M186.98 169.83h-.17v-69.38a15.6 15.6 0 0 0-15.53-15.54H101.9v.07-.07h77.92c4.29 0 8.37 1.82 11.24 5.01a15.28 15.28 0 0 1 4.25 10.53v66.91a15.95 15.95 0 0 1-8.33 2.47"/>
    <path fill="#23456f"
          d="M179.77 280.21h-8.5a15.66 15.66 0 0 0 15.54-15.53v-94.85h.17c2.83 0 5.58.17 8.33.42v94.43a15.65 15.65 0 0 1-15.54 15.53"/>
    <path fill="#2c83b7" d="M186.58 169.83a15.24 15.24 0 0 1 .13 0h-.13"/>
    <path fill="#878e94" d="m175.86 165.24-69.38-69.38 69.38 69.38"/>
    <path fill="#2c668b"
          d="M186.71 169.83a15.24 15.24 0 0 1-10.67-4.4c0-.02-.02-.03-.03-.04l-.03-.03-.12-.12-69.38-69.38a15.38 15.38 0 0 1-4.58-10.7v-.25h69.38a15.6 15.6 0 0 1 15.53 15.54v69.38h-.1"/>
    <path fill="#203b5b"
          d="M186.72 169.83h-.14.23-.1m-15.43 110.38H105.8a84.88 84.88 0 0 1-3.93-25.49c0-36.1 23.2-69.58 59.47-80.98l.19-.07.1-.02.16-.06.13-.03a84.88 84.88 0 0 1 24.8-3.73h.09v94.85a15.66 15.66 0 0 1-15.53 15.53"/>
    <path fill="#1d314c" d="M186.76 169.83h-.04.09-.05"/>
    <g clip-path="url(#a)" transform="matrix(.13 0 0 -.13 0 339.65)">
        <path fill="url(#b)"
              d="M116.74 1910.57h1167.63c64.48 0 116.74-52.26 116.74-116.73V626.21c0-64.47-52.26-116.75-116.74-116.75H116.74C52.27 509.46 0 561.74 0 626.21v1167.63c0 64.47 52.27 116.73 116.74 116.73"/>
    </g>
    <path fill="#fff"
          d="M88.31 194.69c2.86 8.42 4.56 13.74 5.1 15.95h.35c.51-2.21 2.35-7.9 5.5-17.08l22.65-65.85h20.83l-38.43 101.2h-22.3l-37.85-101.2h21.41l22.74 66.98"/>
</svg>
