<svg xmlns="http://www.w3.org/2000/svg" width="1056" height="816">
    <defs>
        <clipPath id="a" clipPathUnits="userSpaceOnUse">
            <path d="M0 612h792V0H0Z"/>
        </clipPath>
    </defs>
    <g clip-path="url(#a)" transform="matrix(1.3 0 0 -1.3 0 816)">
        <path d="M557 189c0-2-2-4-4-4s-4 2-4 4c0 3 2 4 4 4s4-1 4-4m2 0c0 4-3 5-6 5s-5-1-5-5c0-3 2-5 5-5s6 2 6 5m-7 0h1l1-2h2l-2 2 2 1c0 2-1 2-3 2h-2v-5h1v2m0 1v1h2l-1-1h-1m-42 44 10-28h-20zm-10 10-23-58h16l3 10h28l3-10h18l-24 58zm-47-58h17v58h-17zm-114 58-13-46-14 46h-17l18-58h24l19 58zm67-12h7c10 0 17-5 17-17s-7-17-17-17h-7zm-17 12v-58h27c14 0 19 2 24 8 4 3 6 12 6 20 0 9-2 16-6 20-6 9-14 10-27 10zm-155 0v-58h16v44h13c4 0 7-1 9-3 3-3 4-7 4-15v-26h16v32c0 23-15 26-29 26zm129 0v-58h16v58z"/>
        <path fill="#8cc63f"
              d="M278 360s21 31 63 35v11c-47-4-87-44-87-44s23-66 87-72v12c-47 6-63 58-63 58m63-34v-11c-35 6-45 43-45 43s17 19 45 23v-13c-15 2-26-12-26-12s6-23 26-30m0 101v-21h4c54 2 88-44 88-44s-40-48-81-48l-11 1v-13h9c39 0 67 19 94 43 4-4 22-13 26-17a233 233 0 0 0-129-38v-18h147v155zm0-46v14h4c39 1 64-33 64-33s-27-38-56-38l-12 2v42c15-1 18-8 27-23l20 17s-15 19-39 19h-8"/>
    </g>
</svg>
