<svg xmlns="http://www.w3.org/2000/svg" xml:space="preserve" viewBox="0 0 500 500">
  <path fill="#ff0101" d="M214 196a69 69 0 1 1 69 0l-21-36a27 27 0 1 0-27 0l-21 36z"/>
    <path fill="#0101ff" d="M361 213a69 69 0 1 1-68 0l20 36a27 27 0 1 0 28 0l20-36z"/>
    <path fill="#01ff01" d="M240 272a69 69 0 1 1-34-59l-21 36a27 27 0 1 0 14 23h41z"/>
    <path fill="#050505"
          d="M122 358h18l10 4 4 12v25l-4 12c-3 3-7 3-11 4h-18c-4 0-8-1-11-3-3-1-4-4-5-6l-2-16 2-20c1-3 1-6 4-8 4-3 9-4 13-4zm1 9c-2 0-5 1-7 3l-1 11v19c0 2 1 4 4 5 5 2 10 1 16 1 2 0 6-1 7-3 2-5 1-9 2-14-1-6 0-12-2-18 0-2-2-3-4-4h-15zm52 10c4-2 8-3 12-2 4 0 8 1 10 5 3 4 3 10 3 14 0 6 0 11-2 15-2 3-4 5-7 6-5 1-10 1-14-1l-5-5v24h-10v-58h9v6l4-4zm3 5c-2 0-5 1-5 4-2 4-1 9-1 13 0 3 1 7 4 8 3 2 7 2 10 0 3 0 4-4 4-7l-1-13-2-4-9-1zm34-5c5-2 10-2 16-2 4 0 9 1 12 5 3 5 2 11 3 17h-27c0 3-1 6 1 9 1 2 4 2 6 2 3 0 6 1 8-1 2-1 2-3 2-5l10 1c0 3-1 7-4 9-3 3-9 4-14 4s-10-1-14-3c-3-2-4-6-5-9v-16c1-4 2-9 6-11zm6 6c-3 2-2 5-2 8h17l-1-7c-1-2-4-2-5-2l-9 1zm46-6c3-2 7-3 12-2 3 0 7 2 9 5l2 8v27h-9v-25c0-2 0-4-2-6-1-2-4-2-6-2l-7 2c-2 2-3 5-3 7v24h-9v-40h9v7l4-5zm40-17a58 58 0 0 1 32 0l5 5 1 12h-11c0-3 1-6-1-8s-5-2-7-2c-5 0-10-1-14 1-2 1-3 2-3 4l-1 12 1 18c1 2 2 3 4 3 5 2 9 1 14 1 2 0 5 0 7-2l1-9h11c0 4 0 9-2 13-1 3-3 5-5 5l-14 3c-6 0-11 0-17-2-3-1-6-2-8-5l-2-13-1-18c1-5 1-10 4-14 1-2 3-4 6-4zm41-2h11l11 35 4 13 5-14 10-34h12v1l-18 56h-17l-18-57z"/>
</svg>
