<svg xmlns="http://www.w3.org/2000/svg" width="403.41" height="598.95" viewBox="144.9 304.79 403.41 598.95">
    <defs>
        <style>
            .st0{fill:#8000db}.st1{fill:#008298}.st2{fill:#580098}.st3{fill:#98005e}.st4{fill:#ff009e}.st5{fill:#00bedd}.st7{fill:#ffe001}
        </style>
    </defs>
    <path d="M224.6 612.6c-2.1-12.4-4.8-24.5-10.9-34.1-8.3-13.1-22.8-22-51.6-22.2l-.4 16.4c10.2-.3 20 .7 28.3 5.9 7.1 4.5 13.1 11.9 17.6 24.2-25-8.5-39.2-5.9-49.3.5-5.2 3.4-9.3 7.9-13.4 12.4l11.4 10.4c.7-1 1.4-1.8 2-2.6 12.2-14.5 26.4-14 41.3-6-32.4 15.6-37.6 43-35.9 62.8 1.5.2 15.9 0 15.9 0-1.4-19.2 12.3-45 40.8-52.8l4.3-8.7-.1-6.2z"
          class="st0"/>
    <path d="M437.9 443.1c48-66.6 71.7-99.7 52.7-115.7-12.6-10.5-29.5-3.1-56.9 17.4-1 21.9-6.2 53-13.3 94.4l17.5 3.9z"
          class="st1"/>
    <path d="M468.3 842.5h-17.6c-.4 25.2.2 51.1-26.7 59.4.9.1 1.8.2 2.9.3 2.9.3 5.7.1 8.4-.5 33.3-8.5 32.5-34.2 33-59.2z"
          class="st2"/>
    <path d="m487.3 842.5-18.6-44H486l-14.5-41.6h-24.1l11.2 41.6h-13.4l14.3 44h27.8z" class="st3"/>
    <path d="M424 901.9c26.9-8.3 26.2-34.1 26.7-59.4h-63.8c-.4 37.5 13.1 55.8 37.1 59.4z" class="st0"/>
    <path d="M445.2 798.5h13.3l-11.2-41.4-64.9-.3-15.1 43 16.4 1.2-16.4 41.4h92.3l-14.4-43.9z" class="st4"/>
    <path d="m310.6 800.1-17.2-43.6-24.1-.1 11.9 42.8h-13.6l14.7 44.4 30.5.3-21.2-44 19 .2z" class="st3"/>
    <path d="M267.5 799.1h13.6l-11.8-42.8-65.9-.3-15.9 44.4 16.8 1.2-16.8 41.8 94.7.2-14.7-44.5z" class="st4"/>
    <path d="M417.8 305.4c-25.9-6.2-40.9 35-78.4 115.7l81 18c7-41.3 12.3-72.5 13.3-94.4 1-23.3-3.1-36-15.9-39.3z"
          class="st5"/>
    <path fill="#f90"
          d="m467.3 714.5 21.4 1.4-22.8-45.5h18.7l-16.9-41.3h-27.1l15.2 41.3H439l20.5 45.5-19.2-1.4 20.5 42.6 29.2.1-22.7-42.7z"/>
    <path d="m488.7 586.5-15.7-44h-30.4l12.9 44h-18.7l16.4 42.7h32.6l-20-42.7h22.9z" class="st1"/>
    <path d="M339.5 421.2c-.1.2-.1 0 0 0l-36 71.6 19.9.4-23.9 49.3h173.2l-22.4-9.5c-3.4-1.4-5.4-4.1-4.6-5.9.1-.2.2-.3.3-.4 1-1.5 4.1-1.7 7.2-.4l1 .4 15.7 6.7 13.6 5.7v-85.8l-144-32.1z"
          class="st7"/>
    <path fill="#fff"
          d="M426.6 502.8c10.9 0 19.8-8.8 19.8-19.9 0-10.9-8.8-19.9-19.8-19.9a19.8 19.8 0 0 0-19.8 19.9c.1 11.1 9 19.9 19.8 19.9zm0-29.7c5.4 0 9.9 4.5 9.9 9.9s-4.5 9.9-9.9 9.9-9.9-4.5-9.9-9.9c.1-5.4 4.5-9.9 9.9-9.9z"/>
    <path d="M427.3 492.9c5.4-.3 9.5-5 9.3-10.5-.3-5.4-5-9.7-10.5-9.3-5.4.3-9.5 5-9.3 10.5a10 10 0 0 0 10.5 9.3zm56.1 49.6V539l-29.3-12.6-1-.4c-3.1-1.2-6-1-7.2.4-.1.1-.2.3-.3.4-.7 1.8 1.2 4.6 4.6 5.9l22.4 9.5h.4l10.4.3z"/>
    <path d="M436.9 586.5h18.6l-12.9-44H320.5l-18.5 44h18.6L303 629.1h.2v.1h149.9l-16.2-42.7z" class="st5"/>
    <path d="m303 629.1-78.2-10.5-23.9 48.7h15.9c-1.5 2-3.2 4.3-4.7 6.6l22 20.6 28.5-27 27.8 27.6 28.5-27 28.5 27 27.8-27.6.9.9 27.5 26 28.5-27 10.9 10.7-3.4-7.6h16.9l-15.2-41.4H303.4"
          class="st7"/>
    <path d="m440.4 714.5 19.2 1.2-4-8.6-24-24-28.3 28.5-28.5-28.5-28.3 28.6-27.8-27.8-28.5 27-27.5-27.4-28.3 28.5-28.3-28.3c-1.8 3.1-12.9 22.4-16.8 29.7l21.7 1.2-19.5 41.4 269.7 1.2-20.8-42.7z"
          class="st7"/>
    <path d="m442.7 678.1-10.9-10.9-28.5 27-28.5-27-27.7 27.6-28.5-27-28.4 27-27.8-27.6-28.5 27-22-20.6c-2 3.1-4.3 6.2-6.2 9.8l28.3 28.3 28.3-28.5 27.5 27.4 28.5-27 27.8 27.8 28.5-28.5 28.5 28.5 28.3-28.5 24 24-12.7-28.8z"/>
    <path d="M273.4 843.4c-.4 25.4.3 51.4-26.7 59.8 1.6.2 3.3.4 5 .5 1.4.1 3 0 4.3-.3 1.2-.3 2.6-.7 3.7-1 1.7-.5 3.5-1 5-1.6 1-.4 2-.9 3.1-1.2.7-.3 1.2-.7 1.8-1 .6-.3 1.2-.7 1.7-1 .9-.5 1.7-1 2.6-1.6.5-.3 1-.7 1.5-1 1-.9 2.1-1.7 3.1-2.6 1-1 1.9-2 2.9-3.1.3-.4.7-.7 1-1.2.4-.5.7-1 1-1.6.7-1 1.2-2.2 1.8-3.3.3-.5.5-1.2.9-1.7.1-.3.3-.7.4-1 .2-.4.3-1 .5-1.4.1-.2.2-.4.2-.7.3-1 .7-1.9.9-3 0-.2.1-.4.1-.5.2-.7.3-1.2.4-1.9 0-.1.1-.3.1-.4.1-.7.3-1.5.4-2.3.1-.4.1-.9.2-1.2.1-.4.1-1 .2-1.4a112.33 112.33 0 0 0 1-14.8c.1-3 .1-5.9.2-8.8l-17.3-.7z"
          class="st2"/>
    <path d="M209.5 843.4c-.1 7.3.3 14 1.2 19.9.3 2.4.7 4.5 1.2 6.6.3 1.4.7 2.8 1 4 5.5 17.6 17 26.9 33.5 29.4 27-8.4 26.2-34.4 26.7-59.8h-63.7v-.1z"
          class="st0"/>
    <path d="M547.7 499c-6.5 16.4-27.9 29.7-64.6 32.9v10.6c2.6-.1 4.8-.3 7.2-.4 2.9-.2 5.5-.5 8.2-1 2.4-.3 4.7-.7 6.9-1.2 9.9-2 18.1-5.1 24.7-9 1.4-.9 2.9-1.7 4-2.6.7-.4 1.2-.9 1.8-1.4 1.7-1.4 3.4-3 4.8-4.5 1-1 1.7-2 2.6-3.2 1.8-2.8 3.3-5.5 4.1-8.4 1.1-3.7 1.2-7.7.3-11.8z"
          class="st3"/>
    <path d="M491.3 455.2c-2.6-.7-5.1-1.4-7.9-1.9V532c36.6-3.3 58-16.7 64.6-32.9-3.4-16.8-22.2-34.3-56.7-43.9z"
          class="st4"/>
</svg>
