<svg xmlns="http://www.w3.org/2000/svg" width="220" height="220" viewBox="170 90 220 220">
    <path fill="#ed6c47" d="M293.75 103.75c-52.74.15-96.1 43.5-96.25 96.25l121.94 25.7z"/>
    <path fill="#ff8f6b" d="M293.75 103.75c52.74.15 96.1 43.5 96.25 96.25l-48.13 32.71L293.75 200z"/>
    <path fill="#d35230" d="M293.75 296.25c52.74-.15 96.1-43.5 96.25-96.25H197.5c.15 52.74 43.5 96.1 96.25 96.25z"/>
    <path fill-opacity=".1"
          d="M284.58 138.13h-64.36c-32.43 38.2-29.6 95.76 6.4 130.62h57.97a9.24 9.24 0 0 0 9.16-9.16v-112.3a9.23 9.23 0 0 0-9.16-9.16z"/>
    <path fill-opacity=".2"
          d="M277.7 145h-62.75c-29.26 41.53-20.58 99.5 19.57 130.63h43.18a9.23 9.23 0 0 0 9.17-9.17V154.17a9.23 9.23 0 0 0-9.17-9.16zm0 0h-62.75a95.74 95.74 0 0 0 5.27 116.88h57.48a9.24 9.24 0 0 0 9.16-9.17v-98.54a9.23 9.23 0 0 0-9.16-9.16zm-6.87 0h-55.88a95.74 95.74 0 0 0 5.27 116.88h50.6a9.24 9.24 0 0 0 9.17-9.17v-98.54a9.23 9.23 0 0 0-9.17-9.16z"/>
    <path fill="#c43e1c"
          d="M179.16 145h91.67a9.2 9.2 0 0 1 9.16 9.16v91.67a9.2 9.2 0 0 1-9.16 9.16h-91.67a9.2 9.2 0 0 1-9.16-9.16v-91.67a9.2 9.2 0 0 1 9.16-9.16z"/>
    <path fill="#f9f7f7"
          d="M224.98 165.63a28.67 28.67 0 0 1 18.94 5.53 19.8 19.8 0 0 1 6.57 16.02c.08 3.89-1.06 7.7-3.25 10.92a21.76 21.76 0 0 1-9.24 8.16 31.42 31.42 0 0 1-13.89 2.9h-13.14v25.2H197.5v-68.74zm-14 32.2h11.6a15.1 15.1 0 0 0 10.24-3.06 7.62 7.62 0 0 0 3.47-7.05c0-7.6-4.43-11.4-13.28-11.4h-12.03z"/>
    <path fill="none" d="M170 90h220v220H170z"/>
</svg>
