<svg xmlns="http://www.w3.org/2000/svg" width="256" height="327" preserveAspectRatio="xMidYMid">
    <path d="M69.3 0c-1.65.06-3.43.67-5.45 2.26C58.9.36 54.1-.31 49.8 3.57c-6.62-.86-8.77.92-10.4 2.99-1.46-.03-10.88-1.5-15.2 4.95-10.86-1.29-14.3 6.39-10.4 13.55-2.22 3.43-4.52 6.82.67 13.37-1.83 3.65-.7 7.6 3.63 12.39-1.14 5.13 1.1 8.74 5.12 11.56-.75 7.02 6.43 11.1 8.58 12.55.82 4.09 2.54 7.94 10.75 10.08 1.35 6.09 6.28 7.14 11.06 8.42-15.79 9.17-29.32 21.25-29.23 50.87l-2.32 4.13c-18.1 11-34.38 46.39-8.92 75.15 1.67 9 4.46 15.46 6.94 22.62 3.72 28.84 27.96 42.34 34.36 43.94 9.37 7.13 19.35 13.9 32.86 18.65 12.73 13.13 26.52 18.14 40.4 18.13.2 0 28.27-5 41-18.13 13.5-4.74 23.49-11.52 32.86-18.65 6.4-1.6 30.64-15.1 34.36-43.94 2.48-7.16 5.27-13.62 6.94-22.62 25.46-28.77 9.18-64.15-8.92-75.16l-2.32-4.12c.1-29.62-13.45-41.7-29.23-50.88 4.77-1.27 9.7-2.33 11.06-8.42 8.2-2.13 9.92-5.99 10.75-10.08 2.14-1.45 9.33-5.53 8.58-12.54 4.02-2.82 6.26-6.44 5.12-11.56 4.32-4.8 5.46-8.75 3.63-12.4 5.19-6.54 2.88-9.93.67-13.37 3.89-7.15.45-14.83-10.41-13.54-4.32-6.45-13.75-4.98-15.2-4.96-1.63-2.06-3.79-3.84-10.4-2.98-4.3-3.88-9.1-3.22-14.04-1.31-5.87-4.64-9.76-.92-14.2.48-7.11-2.32-8.74.86-12.23 2.16-7.76-1.64-10.12 1.93-13.83 5.7l-4.33-.1c-11.7 6.9-17.51 20.94-19.57 28.16-2.06-7.22-7.86-21.26-19.55-28.15l-4.33.09c-3.72-3.77-6.08-7.34-13.83-5.7-3.5-1.3-5.12-4.48-12.24-2.16-2.91-.92-5.6-2.83-8.75-2.74L-11 141"/>
    <path fill="#75A928"
          d="M46 30.33c31.04 16 49.09 28.95 58.97 39.97-5.06 20.3-31.47 21.22-41.12 20.65 1.97-.92 3.62-2.02 4.2-3.72-2.41-1.72-11-.18-17-3.55 2.3-.48 3.38-.94 4.46-2.64-5.67-1.8-11.77-3.37-15.36-6.36 1.93.02 3.74.43 6.27-1.32-5.07-2.74-10.49-4.9-14.7-9.08 2.63-.07 5.45-.03 6.28-1a56.6 56.6 0 0 1-11.81-9.58c3.67.45 5.22.07 6.11-.57-3.51-3.6-7.96-6.64-10.07-11.07 2.72.94 5.22 1.3 7.01-.08-1.19-2.7-6.3-4.28-9.24-10.57 2.87.28 5.91.62 6.52 0-1.33-5.43-3.62-8.48-5.86-11.64 6.14-.1 15.45.02 15.03-.5l-3.8-3.88c6-1.62 12.14.26 16.6 1.65 2-1.58-.04-3.57-2.48-5.61 5.1.68 9.7 1.85 13.88 3.46 2.22-2-1.45-4.02-3.23-6.02 7.88 1.49 11.22 3.6 14.54 5.7 2.4-2.31.14-4.27-1.49-6.28 5.94 2.2 9 5.04 12.22 7.84 1.1-1.47 2.78-2.55.75-6.1a30.79 30.79 0 0 1 9.74 8.5c2.61-1.66 1.56-3.94 1.57-6.03 4.39 3.57 7.17 7.36 10.57 11.07.69-.5 1.29-2.2 1.82-4.88 10.46 10.15 25.23 35.7 3.8 45.84C91.93 49.48 70.15 38.54 46 30.33m164.69 0c-31.04 16-49.08 28.95-58.96 39.97 5.06 20.3 31.47 21.22 41.12 20.65-1.97-.92-3.63-2.02-4.2-3.72 2.41-1.72 11-.18 17-3.55-2.3-.48-3.38-.94-4.46-2.64 5.67-1.8 11.77-3.37 15.36-6.36-1.93.02-3.74.43-6.27-1.32 5.07-2.74 10.49-4.9 14.7-9.08-2.63-.07-5.46-.03-6.28-1a56.6 56.6 0 0 0 11.81-9.58c-3.67.45-5.22.07-6.11-.57 3.51-3.6 7.95-6.64 10.07-11.07-2.72.94-5.22 1.3-7.02-.08 1.2-2.7 6.31-4.28 9.25-10.57-2.87.28-5.91.62-6.52 0 1.33-5.43 3.62-8.48 5.86-11.65-6.14-.09-15.45.03-15.03-.5l3.8-3.87c-6-1.62-12.14.26-16.6 1.65-2-1.58.04-3.58 2.48-5.62-5.1.68-9.7 1.86-13.87 3.47-2.23-2 1.44-4.02 3.22-6.03-7.88 1.5-11.22 3.6-14.54 5.7-2.4-2.3-.13-4.27 1.49-6.27-5.94 2.2-9 5.04-12.22 7.84-1.1-1.47-2.78-2.55-.75-6.11a30.99 30.99 0 0 0-9.74 8.5c-2.61-1.66-1.56-3.93-1.57-6.02-4.38 3.56-7.17 7.36-10.57 11.06-.69-.5-1.29-2.19-1.82-4.87-10.45 10.15-25.23 35.7-3.8 45.83 18.24-15.05 40.02-25.98 64.17-34.19"/>
    <path fill="#BC1142"
          d="M165.93 236.93c.11 18.94-16.45 34.37-36.98 34.46-20.53.1-37.26-15.16-37.37-34.1v-.36c-.1-18.93 16.45-34.36 36.98-34.46 20.53-.1 37.26 15.17 37.37 34.1v.36M107.25 139c15.4 10.1 18.18 32.97 6.2 51.1-11.98 18.13-34.18 24.64-49.58 14.55-15.4-10.1-18.18-32.97-6.2-51.1 11.97-18.12 34.17-24.64 49.58-14.55m41.57-1.82c-15.4 10.09-18.18 32.97-6.2 51.1 11.98 18.12 34.18 24.63 49.58 14.54 15.4-10.1 18.18-32.97 6.2-51.1-11.97-18.12-34.17-24.64-49.58-14.54M30.26 155.5c16.63-4.45 5.61 68.8-7.92 62.8-14.88-11.98-19.68-47.04 7.92-62.8m192.19-.9c-16.63-4.47-5.61 68.8 7.92 62.79 14.88-11.98 19.68-47.04-7.92-62.8m-56.5-54.56c28.7-4.84 52.58 12.21 51.62 43.33-.95 11.93-62.2-41.55-51.62-43.33m-79.3-.91c-28.7-4.85-52.59 12.21-51.62 43.33.94 11.93 62.2-41.55 51.62-43.33m41.22-7.26c-17.13-.44-33.57 12.72-33.6 20.35-.05 9.27 13.54 18.77 33.72 19.01 20.61.15 33.76-7.6 33.83-17.17.08-10.85-18.75-22.36-33.95-22.19m1.05 190.18c14.94-.65 34.98 4.81 35.02 12.06.24 7.04-18.18 22.93-36.01 22.63-18.47.8-36.57-15.13-36.34-20.65-.27-8.09 22.49-14.4 37.33-14.04M73.76 239.1c10.63 12.8 15.48 35.31 6.6 41.95-8.4 5.06-28.78 2.98-43.27-17.84-9.77-17.47-8.51-35.24-1.65-40.46 10.26-6.25 26.11 2.19 38.32 16.35m108.2-4.06c-11.5 13.47-17.92 38.05-9.52 45.97 8.02 6.15 29.56 5.29 45.48-16.8 11.55-14.82 7.68-39.59 1.08-46.16-9.8-7.59-23.88 2.12-37.04 16.98"/>
</svg>
