<svg xmlns="http://www.w3.org/2000/svg" xml:space="preserve" width="277.32" height="149.56">
  <path fill="#f89939"
        d="M212.71 127.09c33.87-33.87 39.5-83.15 12.57-110.07-26.92-26.92-76.2-21.3-110.06 12.57-33.87 33.87-24.07 98.57-12.57 110.07 9.29 9.3 76.2 21.3 110.06-12.57z"/>
    <path fill="#3499cd"
          d="M73.74 78.15C54.1 58.5 25.5 55.23 9.87 70.85c-15.62 15.63-12.35 44.23 7.3 63.87 19.65 19.65 57.2 13.97 63.86 7.3 5.4-5.4 12.37-44.22-7.29-63.87z"/>
    <g fill="#010101">
    <path d="M141.53 118.79c-3.47 3.2-6.51 5.55-9.13 7.06-2.62 1.52-5.11 2.28-7.49 2.28a8 8 0 0 1-6.6-3.17c-1.68-2.13-2.51-4.97-2.51-8.55 0-5.36 1.16-11.8 3.48-19.3a122.55 122.55 0 0 1 8.47-20.76l9.73-3.6c.3-.1.53-.16.69-.16.74 0 1.35.55 1.81 1.63.48 1.09.71 2.55.71 4.39 0 5.2-1.2 10.25-3.6 15.13-2.4 4.88-6.15 10.08-11.26 15.63-.2 2.65-.3 4.48-.3 5.47 0 2.23.4 3.98 1.22 5.29.82 1.3 1.9 1.95 3.26 1.95a8.3 8.3 0 0 0 4.4-1.49c1.56-1 3.93-3.06 7.12-6.2v4.4zm-14.66-14.98a46.74 46.74 0 0 0 7.89-12.12c2.01-4.47 3.02-8.32 3.02-11.55 0-.94-.14-1.7-.42-2.27-.28-.58-.64-.87-1.07-.87-.94 0-2.32 2.35-4.12 7.06-1.8 4.7-3.57 11.29-5.3 19.75z"/>
        <path d="M170.19 118.79c-3.25 3.2-6.16 5.55-8.74 7.06a16.5 16.5 0 0 1-8.54 2.28c-3.47 0-6.27-1.1-8.4-3.33-2.14-2.22-3.2-5.14-3.2-8.77 0-5.41 1.87-10.3 5.63-14.69 3.75-4.38 7.92-6.57 12.49-6.57 2.37 0 4.27.62 5.7 1.84a6.05 6.05 0 0 1 2.15 4.83c0 5.29-5.62 9.57-16.85 12.87 1.02 4.97 3.68 7.47 8 7.47 1.69 0 3.3-.46 4.82-1.36 1.54-.9 3.85-2.92 6.94-6.04v4.4zm-20.07-7.09c6.53-1.84 9.8-5.23 9.8-10.19 0-2.45-.9-3.67-2.68-3.67-1.68 0-3.3 1.28-4.82 3.85-1.54 2.56-2.3 5.9-2.3 10.01z"/>
        <path d="M211.1 118.79c-4.1 3.88-7.02 6.4-8.78 7.58a9.18 9.18 0 0 1-5.05 1.76c-4.04 0-5.94-3.56-5.71-10.68-2.55 3.65-4.91 6.34-7.07 8.08-2.16 1.74-4.38 2.6-6.68 2.6-2.25 0-4.16-1.05-5.73-3.15a12.6 12.6 0 0 1-2.35-7.76c0-3.83 1.05-7.48 3.15-10.96a26 26 0 0 1 8.1-8.42c3.3-2.15 6.21-3.22 8.74-3.22a6.77 6.77 0 0 1 6.7 4.4l7.83-4.32h2.15l-3.38 11.22c-1.74 5.64-2.61 9.51-2.61 11.6 0 2.2.78 3.3 2.34 3.3.99 0 2.09-.53 3.29-1.59a122.9 122.9 0 0 0 5.05-4.85v4.4zm-28.04 2.1c2.55 0 4.95-2.17 7.22-6.52 2.26-4.36 3.39-8.38 3.39-12.05 0-1.43-.32-2.55-.96-3.35a3.1 3.1 0 0 0-2.57-1.2c-2.55 0-4.97 2.16-7.25 6.5-2.29 4.34-3.43 8.34-3.43 11.99 0 1.38.34 2.5 1.01 3.35a3.15 3.15 0 0 0 2.59 1.29z"/>
        <path d="M239.7 118.79c-6.4 6.28-11.35 9.42-14.82 9.42a4.92 4.92 0 0 1-3.94-1.97 7.5 7.5 0 0 1-1.61-4.89c0-3.6 1.93-8.42 5.78-14.47a21.5 21.5 0 0 1-6.2 2.03c-1.66 3.06-4.27 6.36-7.82 9.88h-.88v-3.45c2-2.07 3.8-4.29 5.4-6.66-2.2-.97-3.3-2.42-3.3-4.33 0-1.97.68-4.07 2.02-6.3 1.34-2.24 3.19-3.35 5.54-3.35 1.99 0 2.98 1.02 2.98 3.06 0 1.6-.57 3.9-1.72 6.9 4.24-.47 7.94-3.7 11.1-9.73l3.49-.16-3.56 9.8a178.56 178.56 0 0 0-2.87 8.45c-.44 1.5-.65 2.82-.65 3.97 0 1.07.25 1.93.74 2.56.5.65 1.17.96 2.01.96.92 0 1.8-.31 2.65-.93a86.1 86.1 0 0 0 5.67-5.2v4.4z"/>
        <path d="M277.32 118.79c-5.9 6.23-10.96 9.34-15.17 9.34-1.71 0-3.09-.6-4.14-1.8-1.04-1.2-1.57-2.8-1.57-4.82 0-2.73 1.13-6.9 3.38-12.52 1.2-3.02 1.8-4.94 1.8-5.75 0-.82-.33-1.23-.96-1.23-.36 0-.83.18-1.42.54-.54.36-1.16.86-1.88 1.5a61.04 61.04 0 0 0-4.36 4.6l-2.15 2.48a7.9 7.9 0 0 0-1.76 3.64 57.95 57.95 0 0 0-.77 5.98 99.02 99.02 0 0 0-.11 5.47l-8.47 2a105.6 105.6 0 0 1-.42-7.7c0-4.12.48-8.01 1.44-11.69.96-3.68 2.5-7.81 4.61-12.4l9.35-1.8c-1.97 5.28-3.26 9.44-3.87 12.48 4.19-4.68 7.5-7.91 9.97-9.71 2.46-1.8 4.64-2.7 6.56-2.7 1.3 0 2.38.49 3.25 1.47.87.98 1.3 2.22 1.3 3.69 0 2.45-1.1 6.48-3.3 12.1-1.5 3.86-2.26 6.36-2.26 7.51 0 1.54.63 2.3 1.89 2.3 1.86 0 4.89-2.46 9.06-7.38z"/>
  </g>
    <text x="153.33" y="81.95" fill="#fff" font-family="Helvetica" font-size="23.08"
          style="line-height:0%">scikit</text>
</svg>
