<svg xmlns="http://www.w3.org/2000/svg" width="256" height="256" preserveAspectRatio="xMidYMid">
    <path fill="#FFF" d="M128.9 2.4a124.7 124.7 0 1 0 124.7 126.27l.01-1.59-.01-1.58A124.7 124.7 0 0 0 128.9 2.39Z"/>
    <g fill="#AFDAD2" stroke="#FFF" stroke-width=".25">
        <path d="M100.43 73.98a4.8 4.8 0 1 0 0-9.6 4.8 4.8 0 0 0 0 9.6Zm-10.35 7.24a4.65 4.65 0 1 0 0-9.3 4.65 4.65 0 0 0 0 9.3Zm-9.95 4.61a4.38 4.38 0 1 0 0-8.76 4.38 4.38 0 0 0 0 8.76Zm29.02-17.57a4.95 4.95 0 1 0 0-9.9 4.95 4.95 0 0 0 0 9.9Zm-36.48 7.18a3.32 3.32 0 1 0 0-6.64 3.32 3.32 0 0 0 0 6.64Zm-8.2 18.21a3.95 3.95 0 1 0 0-7.9 3.95 3.95 0 0 0 0 7.9Zm5.02-31.26a4.76 4.76 0 1 0 0-9.52 4.76 4.76 0 0 0 0 9.52Zm12.83 8.91a3.68 3.68 0 1 0 0-7.37 3.68 3.68 0 0 0 0 7.36Zm63.45-10.99a4.3 4.3 0 1 0 0-8.6 4.3 4.3 0 0 0 0 8.6ZM55.53 83.12a2.6 2.6 0 1 0 0-5.22 2.6 2.6 0 0 0 0 5.22Zm8.67-2.46a3.1 3.1 0 1 0 0-6.19 3.1 3.1 0 0 0 0 6.2Zm-15.8-9.81a4.1 4.1 0 1 0 0-8.2 4.1 4.1 0 0 0 0 8.2Zm16.14-1.8a2.14 2.14 0 1 0 0-4.28 2.14 2.14 0 0 0 0 4.28Zm28.63-3.34a4 4 0 1 0 0-7.98 4 4 0 0 0 0 7.98Zm30.33 2.31a3.45 3.45 0 1 0 0-6.89 3.45 3.45 0 0 0 0 6.9Zm6.31-21.49a2.26 2.26 0 1 0 0-4.51 2.26 2.26 0 0 0 0 4.5Z"/>
        <path d="M137.14 59.5a3.77 3.77 0 1 0 0-7.53 3.77 3.77 0 0 0 0 7.54ZM99.5 57.31a3.87 3.87 0 1 0 0-7.74 3.87 3.87 0 0 0 0 7.74ZM51 94.52a3.14 3.14 0 1 0 0-6.28 3.14 3.14 0 0 0 0 6.28Zm103.48-33.39a4.79 4.79 0 1 0 0-9.57 4.79 4.79 0 0 0 0 9.57ZM108.3 57.9a4.4 4.4 0 1 0 0-8.8 4.4 4.4 0 0 0 0 8.8Zm-51.02 3.53a4.07 4.07 0 1 0 0-8.14 4.07 4.07 0 0 0 0 8.14Zm22.66-10.51a4.7 4.7 0 1 0 0-9.42 4.7 4.7 0 0 0 0 9.42Zm88.33 6.34a2.9 2.9 0 1 0 0-5.82 2.9 2.9 0 0 0 0 5.82ZM66.98 45.38a3.7 3.7 0 1 0 0-7.4 3.7 3.7 0 0 0 0 7.4Zm16.68 16.57a3.15 3.15 0 1 0 0-6.3 3.15 3.15 0 0 0 0 6.3Zm7.54-6.83a3.2 3.2 0 1 0 0-6.4 3.2 3.2 0 0 0 0 6.4Zm-49.4 8.12a3.22 3.22 0 1 0 0-6.44 3.22 3.22 0 0 0 0 6.44Zm8.87-12.52a2.95 2.95 0 1 0 0-5.9 2.95 2.95 0 0 0 0 5.9Zm68.15 9.18a2.48 2.48 0 1 0 0-4.96 2.48 2.48 0 0 0 0 4.95ZM39.53 79.54a4.1 4.1 0 1 0 0-8.18 4.1 4.1 0 0 0 0 8.18Zm-9.13-6.9a3.08 3.08 0 1 0-.01-6.15 3.08 3.08 0 0 0 0 6.15Zm96.87-13.47a3.1 3.1 0 1 0 0-6.19 3.1 3.1 0 0 0 0 6.2ZM56.91 75.24a4.77 4.77 0 1 0 0-9.54 4.77 4.77 0 0 0 0 9.54Zm105.1-21.69a4.78 4.78 0 1 0 0-9.56 4.78 4.78 0 0 0 0 9.56ZM42.07 98.62a2.78 2.78 0 1 0 0-5.55 2.78 2.78 0 0 0 0 5.55Zm69.33-54.15a3.82 3.82 0 1 0 0-7.63 3.82 3.82 0 0 0 0 7.63Zm79.3 5.26a3.9 3.9 0 1 0 0-7.8 3.9 3.9 0 0 0 0 7.8Zm-51.86-1.99a3.1 3.1 0 1 0 0-6.2 3.1 3.1 0 0 0 0 6.2ZM71.16 88.7a4.05 4.05 0 1 0 0-8.1 4.05 4.05 0 0 0 0 8.1Zm78.21-39.62a3.87 3.87 0 1 0 0-7.75 3.87 3.87 0 0 0 0 7.75Zm27.43 3.77a3.21 3.21 0 1 0 0-6.42 3.21 3.21 0 0 0 0 6.42Zm30.32 6.96a2.9 2.9 0 1 0 0-5.79 2.9 2.9 0 0 0 0 5.8ZM98.8 38.54a2.5 2.5 0 1 0 0-4.99 2.5 2.5 0 0 0 0 5Zm22.69-6.84a3.65 3.65 0 1 0 0-7.3 3.65 3.65 0 0 0 0 7.3Zm84.98 19.57a4.81 4.81 0 1 0 0-9.62 4.81 4.81 0 0 0 0 9.62Zm-90.5 1.97a4.55 4.55 0 1 0 0-9.1 4.55 4.55 0 0 0 0 9.1ZM132.8 36.2a4.54 4.54 0 1 0 0-9.07 4.54 4.54 0 0 0 0 9.07Zm39.32 5.52a4.7 4.7 0 1 0 0-9.4 4.7 4.7 0 0 0 0 9.4Zm48.65 29.55a4.45 4.45 0 1 0 0-8.9 4.45 4.45 0 0 0 0 8.9ZM120.46 17.4a2.54 2.54 0 1 0 0-5.07 2.54 2.54 0 0 0 0 5.08Z"/>
        <path d="M161.02 44.37a4.27 4.27 0 1 0 0-8.53 4.27 4.27 0 0 0 0 8.53Zm-5.71-8.19a3.44 3.44 0 1 0 0-6.89 3.44 3.44 0 0 0 0 6.89Zm-17.3-7.5a4.42 4.42 0 1 0 0-8.84 4.42 4.42 0 0 0 0 8.84ZM89.28 46.7a4.95 4.95 0 1 0 0-9.9 4.95 4.95 0 0 0 0 9.9Zm-30.55-7.3a2.7 2.7 0 1 0 0-5.39 2.7 2.7 0 0 0 0 5.4Zm12.82-1.8a3.5 3.5 0 1 0 0-7 3.5 3.5 0 0 0 0 7Zm117.47 21.18a4.3 4.3 0 1 0 0-8.62 4.3 4.3 0 0 0 0 8.62Zm-47.28-22.72a2.4 2.4 0 1 0 0-4.79 2.4 2.4 0 0 0 0 4.79Zm-50.82.48a4.54 4.54 0 1 0 0-9.08 4.54 4.54 0 0 0 0 9.08ZM24.33 92.18a3.95 3.95 0 1 0 0-7.9 3.95 3.95 0 0 0 0 7.9Zm10.51 1.36a4.58 4.58 0 1 0 0-9.17 4.58 4.58 0 0 0 0 9.17Zm37.05-40.42a4.41 4.41 0 1 0 0-8.82 4.41 4.41 0 0 0 0 8.82ZM25.62 82.36a3.42 3.42 0 1 0 0-6.84 3.42 3.42 0 0 0 0 6.84Zm137.89-49.65a3.74 3.74 0 1 0 0-7.48 3.74 3.74 0 0 0 0 7.48ZM59.33 48.43a3.4 3.4 0 1 0 0-6.81 3.4 3.4 0 0 0 0 6.8Z"/>
        <path d="M42.83 89.45a4.78 4.78 0 1 0 0-9.56 4.78 4.78 0 0 0 0 9.56Zm155.25-32.51a4.68 4.68 0 1 0 0-9.36 4.68 4.68 0 0 0 0 9.36Zm16.88-.55a3.22 3.22 0 1 0 0-6.44 3.22 3.22 0 0 0 0 6.44Zm-111.27-7.97a3.58 3.58 0 1 0 0-7.17 3.58 3.58 0 0 0 0 7.17Zm78.69-4.03a3 3 0 1 0 0-6 3 3 0 0 0 0 6Zm-1.28-7.52a4.9 4.9 0 1 0 0-9.8 4.9 4.9 0 0 0 0 9.8Zm-60.38 8.34a4.38 4.38 0 1 0 0-8.75 4.38 4.38 0 0 0 0 8.75Zm92.51 21.17a3.76 3.76 0 1 0 0-7.52 3.76 3.76 0 0 0 0 7.52ZM33.94 100.29a2.2 2.2 0 1 0 0-4.4 2.2 2.2 0 0 0 0 4.4ZM80.23 39.2a4.11 4.11 0 1 0 0-8.22 4.11 4.11 0 0 0 0 8.23Zm30.02-6.7a2.94 2.94 0 1 0 0-5.88 2.94 2.94 0 0 0 0 5.88Zm85.25 9.05a3.7 3.7 0 1 0 0-7.4 3.7 3.7 0 0 0 0 7.4Zm-93.46-14.98a4.6 4.6 0 1 0 0-9.2 4.6 4.6 0 0 0 0 9.2Z"/>
        <path d="M174.15 30.96a4.25 4.25 0 1 0 0-8.5 4.25 4.25 0 0 0 0 8.5Zm-92.82-4.53a3.4 3.4 0 1 0 0-6.81 3.4 3.4 0 0 0 0 6.8Zm8.17-2.63a3.76 3.76 0 1 0 0-7.52 3.76 3.76 0 0 0 0 7.51Zm57.9-4.71a4.4 4.4 0 1 0 0-8.82 4.4 4.4 0 0 0 0 8.82Zm-17.7.93a3.43 3.43 0 1 0 0-6.86 3.43 3.43 0 0 0 0 6.86Zm26.5 4.18a2.62 2.62 0 1 0 0-5.24 2.62 2.62 0 0 0 0 5.25Z"/>
        <path d="M147.44 28.23a4.86 4.86 0 1 0 0-9.72 4.86 4.86 0 0 0 0 9.72Zm19.3-4.72a3.36 3.36 0 1 0 0-6.72 3.36 3.36 0 0 0 0 6.72ZM15.93 105.5a4.22 4.22 0 1 0 0-8.44 4.22 4.22 0 0 0 0 8.44Zm95.79-82.28a2.27 2.27 0 1 0 0-4.54 2.27 2.27 0 0 0 0 4.54Zm78.09 10.41a2.74 2.74 0 1 0 0-5.49 2.74 2.74 0 0 0 0 5.49ZM138.54 19.9a3.97 3.97 0 1 0 0-7.93 3.97 3.97 0 0 0 0 7.94ZM47.95 80.15a4.57 4.57 0 1 0 0-9.14 4.57 4.57 0 0 0 0 9.14Z"/>
    </g>
    <path fill="#FFF"
          d="m174.34 58.56-4.71-.11-4.72.1-4.72.33-4.71.55-4.71.75-4.71.95-4.7 1.14-4.69 1.32-4.68 1.47-4.68 1.61-4.67 1.75-4.66 1.84-4.65 1.94-4.64 2-4.64 2.06-4.63 2.09-9.25 4.2-4.62 2.08-4.6 2.05-4.61 2-4.6 1.94-4.6 1.88-4.59 1.8-4.59 1.72-4.59 1.63-4.58 1.54-4.58 1.45-4.59 1.34-4.58 1.26-4.58 1.15-4.58 1.07-4.58.97-4.58.89-4.59.8-5.02.8-.23 1.53a122.37 122.37 0 0 0-.5 31.24l.33 2.85 6.64-2.95 4.63-2.09 9.24-4.2 4.62-2.08 4.6-2.04 4.6-1.99 4.6-1.91 4.59-1.82 4.58-1.7 4.57-1.59 4.57-1.44 4.55-1.27 4.55-1.1 4.54-.92 4.54-.73 4.53-.52 4.52-.31 4.53-.1 4.52.1 4.52.32 4.53.52 4.53.73 4.53.92 4.54 1.1 4.55 1.28 4.56 1.44 4.56 1.58 4.57 1.7 4.58 1.82 4.6 1.91 4.59 1.99 4.6 2.04 4.6 2.07 9.24 4.2 4.63 2.08 4.63 2.06 4.63 2.02 4.64 1.96 4.64 1.9 4.65 1.82 4.65 1.74 4.65 1.65 4.66 1.57 4.66 1.47 4.66 1.37 4.65 1.27 4.66 1.18 4.66 1.08 6.55 1.4.55-1.87a122.38 122.38 0 0 0 4.86-32.65l.01-1.54v-1.55l-.04-1.67c-.4-15-3.53-29.78-9.27-43.63l-.42-1-.76-1.75-4.76-2.14-4.63-2.06-4.64-2-4.65-1.93-4.65-1.85-4.66-1.74-4.67-1.61-4.67-1.48-4.69-1.31-4.69-1.14-4.7-.95-4.7-.76-4.71-.55-4.72-.33Zm-4.76 1.98 4.62.11 4.62.33 4.62.53 4.62.74 4.62.94 4.62 1.12 4.62 1.3 4.62 1.45 4.62 1.6 4.62 1.72 4.62 1.83 4.62 1.93 4.62 2 4.62 2.04 4.02 1.8a120.28 120.28 0 0 1 9.96 44.85l.03 1.64v3.05a120.28 120.28 0 0 1-4.78 32.09l-4.61-.98-4.62-1.07-4.62-1.17-4.62-1.26-4.62-1.36-4.62-1.46-4.62-1.55-4.62-1.64-4.62-1.73-4.62-1.82-4.62-1.88-4.62-1.96-4.62-2-4.62-2.06-4.62-2.08-9.24-4.2-4.62-2.08-4.62-2.05-4.62-2-4.62-1.92-4.62-1.83-4.62-1.72-4.62-1.6-4.62-1.46-4.62-1.3-4.62-1.11-4.62-.94-4.62-.74-4.62-.53-4.62-.33-4.62-.1-4.62.1-4.62.33-4.62.53-4.62.74-4.62.94-4.62 1.12-4.62 1.3-4.62 1.45-4.62 1.6-4.62 1.72-4.62 1.83-4.62 1.93-4.62 2-4.62 2.04-4.62 2.08-9.24 4.2-4.62 2.08-4.03 1.79a120.28 120.28 0 0 1 .49-30.71l3.54-.56 4.62-.81 4.62-.9 4.62-.98 4.62-1.07 4.62-1.17 4.62-1.26 4.62-1.36 4.62-1.46 4.62-1.55 4.62-1.64 4.62-1.73 4.62-1.82 4.62-1.88 4.62-1.96 4.62-2 4.62-2.06 4.62-2.08 9.24-4.2 4.62-2.08 4.62-2.05 4.62-2 4.62-1.92 4.62-1.83 4.62-1.72 4.62-1.6 4.62-1.46 4.62-1.3 4.62-1.11 4.62-.94 4.62-.74 4.62-.53 4.62-.33 4.62-.1Z"/>
    <path fill="#7DB0BC" stroke="#FFF"
          d="m169.58 60.04 4.64.11 4.64.33 4.65.54 4.64.74 4.64.94 4.63 1.13 4.64 1.3 4.63 1.45 4.64 1.6 4.63 1.74 4.63 1.83 4.63 1.93 4.62 2 4.62 2.04 4.2 1.9a120.78 120.78 0 0 1 10.1 45.82v1.03l.02 1.53-.01 1.53a120.78 120.78 0 0 1-4.93 32.66l-5.08-1.07-4.63-1.08-4.62-1.17-4.63-1.27-4.63-1.36-4.63-1.46-4.63-1.55-4.63-1.65-4.63-1.73-4.62-1.81-4.63-1.9-4.62-1.95-4.63-2-4.62-2.06-4.62-2.09-9.24-4.2-4.62-2.07-4.61-2.05-4.62-2-4.6-1.91-4.62-1.83-4.61-1.72-4.61-1.6-4.6-1.45-4.61-1.29-4.6-1.12-4.6-.93-4.6-.73-4.6-.54-4.6-.32-4.6-.1-4.59.1-4.6.32-4.6.54-4.6.73-4.6.93-4.6 1.12-4.6 1.3-4.6 1.44-4.61 1.6-4.6 1.72-4.62 1.83-4.62 1.92-4.61 1.99-4.62 2.04-4.62 2.09-9.24 4.2-4.62 2.08-4.65 2.06a120.78 120.78 0 0 1 .47-31.88l3.89-.62 4.61-.8 4.61-.9 4.61-.98 4.61-1.07 4.61-1.16 4.62-1.26 4.6-1.36 4.62-1.45 4.6-1.55 4.62-1.64 4.61-1.73 4.62-1.81 4.61-1.88 4.62-1.96 4.61-2 4.62-2.06L90.83 84l9.24-4.2 4.62-2.08 4.63-2.05 4.62-2 4.63-1.92 4.63-1.84 4.63-1.72 4.63-1.6 4.63-1.46 4.64-1.3 4.64-1.13 4.64-.94 4.64-.74 4.64-.54 4.64-.33 4.65-.1Z"/>
    <path fill="#5C7DA2"
          d="m95.66 115.98 4.62.11 4.62.33 4.62.53 4.62.74 4.62.94 4.62 1.12 4.62 1.3 4.62 1.45 4.62 1.6 4.62 1.72 4.62 1.83 4.62 1.93 4.62 2 4.62 2.04 4.62 2.08 4.62 2.1 4.62 2.1 4.62 2.08 4.62 2.05 4.62 2.01 4.62 1.96 4.62 1.88 4.62 1.82 4.62 1.73 4.62 1.64 4.62 1.55 4.62 1.46 4.62 1.36 4.62 1.26 4.62 1.17 4.62 1.07 3.95.84a120.27 120.27 0 0 1-234.1-20.13l3.77-1.67 4.62-2.08 4.62-2.1 4.62-2.1 4.62-2.08 4.62-2.05 4.62-2 4.62-1.92 4.62-1.83 4.62-1.72 4.62-1.6 4.62-1.46 4.62-1.3 4.62-1.11 4.62-.94 4.62-.74 4.62-.53 4.62-.33 4.62-.1Z"/>
    <path fill="#444876"
          d="M104.9 147.13v15.5h27.72v21.39h27.72v14.63h27.72v6.18h27.72v5.4a120.28 120.28 0 0 1-194.04-25.88v-14.43h27.72v-19.3h27.72v-3.49h27.72Z"/>
    <path fill="#FFF"
          d="M105.84 146.18v15.5h27.72v21.4h27.72v14.63H189v6.17h27.72v5.33a119 119 0 0 1-1.89 2.02v-5.45H189v25.88c-.62.37-1.26.73-1.9 1.09V199.6h-25.82v43.98l-1.9.53v-59.15h-25.82v63.19l-1.9.07v-84.65h-25.82v82.65l-1.9-.37v-97.77H78.13v89.37l-1.9-.88v-85.01H50.4v68.34l-1.9-1.63v-47.4H22.69v15.23c-.65-1.18-1.28-2.37-1.9-3.57l.01-13.56h27.72v-19.3h27.72v-3.49h29.61Z"/>
    <path fill="#444876"
          d="M128 0a128 128 0 0 1 127.98 126.37L256 128v1.62A128 128 0 1 1 127.98 0Zm0 4.2a123.8 123.8 0 1 0 123.78 125.37l.01-1.57v-1.58A123.8 123.8 0 0 0 127.98 4.2Z"/>
</svg>
