<svg xmlns="http://www.w3.org/2000/svg" width="2500" height="2480" viewBox="-.13 0 32.13 32">
    <circle cx="15" cy="9.5" r="9.5" fill="#036c70"/>
    <circle cx="23.88" cy="17.88" r="8.13" fill="#1a9ba1"/>
    <circle cx="16" cy="25.5" r="6.5" fill="#37c6d0"/>
    <path d="M16.67 7H5.83A9.5 9.5 0 0 0 15 19c.28 0 .55-.01.82-.04V19a6.5 6.5 0 0 0-6.32 6.5l.02.5h7.15A1.34 1.34 0 0 0 18 24.67V8.33A1.34 1.34 0 0 0 16.67 7z"
          opacity=".1"/>
    <path d="M15.67 8H5.62A9.5 9.5 0 0 0 15 19c.28 0 .55-.01.82-.04V19a6.5 6.5 0 0 0-6.15 8h6A1.34 1.34 0 0 0 17 25.67V9.33A1.34 1.34 0 0 0 15.67 8z"
          opacity=".2"/>
    <path d="M15.67 8H5.62A9.5 9.5 0 0 0 15 19c.28 0 .55-.01.82-.04V19a6.5 6.5 0 0 0-6.3 6h6.15A1.34 1.34 0 0 0 17 23.67V9.33A1.34 1.34 0 0 0 15.67 8z"
          opacity=".2"/>
    <path d="M14.67 8H5.62A9.5 9.5 0 0 0 15 19c.28 0 .55-.01.82-.04V19a6.5 6.5 0 0 0-6.3 6h5.15A1.34 1.34 0 0 0 16 23.67V9.33A1.34 1.34 0 0 0 14.67 8z"
          opacity=".2"/>
    <path fill="#03787c"
          d="M1.33 8h13.34A1.33 1.33 0 0 1 16 9.33v13.34A1.33 1.33 0 0 1 14.67 24H1.33A1.33 1.33 0 0 1 0 22.67V9.33A1.33 1.33 0 0 1 1.33 8z"/>
    <path fill="#fff"
          d="M5.67 15.82a2.65 2.65 0 0 1-.82-.87 2.36 2.36 0 0 1-.29-1.18 2.29 2.29 0 0 1 .53-1.55 3.14 3.14 0 0 1 1.42-.92 5.98 5.98 0 0 1 1.94-.3 7.35 7.35 0 0 1 2.54.36v1.8a3.99 3.99 0 0 0-1.15-.47 5.6 5.6 0 0 0-1.35-.17 2.93 2.93 0 0 0-1.38.3.91.91 0 0 0-.55.83.84.84 0 0 0 .23.59 2.12 2.12 0 0 0 .63.45q.4.2 1.17.52a1.23 1.23 0 0 1 .17.06 9.7 9.7 0 0 1 1.48.74 2.65 2.65 0 0 1 .88.88 2.56 2.56 0 0 1 .32 1.33 2.48 2.48 0 0 1-.5 1.6 2.79 2.79 0 0 1-1.33.9 6.05 6.05 0 0 1-1.9.28 10.03 10.03 0 0 1-1.73-.14 5.91 5.91 0 0 1-1.4-.4v-1.9a4.5 4.5 0 0 0 1.42.67 5.51 5.51 0 0 0 1.55.25 2.68 2.68 0 0 0 1.42-.3.95.95 0 0 0 .47-.85.9.9 0 0 0-.26-.65 2.7 2.7 0 0 0-.74-.51q-.47-.24-1.38-.62a7.86 7.86 0 0 1-1.39-.73z"/>
    <path fill="none" d="M0 0h32v32H0z"/>
</svg>
