<svg xmlns="http://www.w3.org/2000/svg" width="2685.33" height="3466.67">
    <defs>
        <clipPath id="a" clipPathUnits="userSpaceOnUse">
            <path d="M0 2600h2014V0H0Z"/>
        </clipPath>
    </defs>
    <g clip-path="url(#a)" transform="matrix(1.33 0 0 -1.33 0 3466.67)">
        <path fill="#2880c3"
              d="M8.4 1561.28c1.87 31.2-2.79 67.61 3.11 103.86 9.93 60.94 42.27 105.34 97.12 133.05 13.5 6.82 21.8 13.87 24.88 30.7 23.85 130.87 76.4 249.8 154.04 357.59 8.92 12.38 16.02 20.88 4.59 36.95-14.56 20.42-4.16 39.24 11 56.23 109.49 122.65 241.27 213.55 398.04 261.95 373.96 115.4 703.6 36.44 985.16-236.57 25.97-25.19 60.67-50.57 27.5-94.85-5.55-7.41 4.26-13.83 8.5-19.63 80.7-110.01 134-231.9 157.76-366.3 2.64-14.85 11.86-19.55 22.7-25.04 67.62-34.25 100.85-90.89 101.15-165.15.26-67.1 6.9-134.66-4.28-201.37-16.1-96-113.78-162.92-208.42-143.33-28.63 5.93-36.23 27.98-36.1 54.96.52 110.12 2.72 220.3.09 330.37-7.12 295.98-140.8 518.86-399.55 661.14-433.05 238.1-988.49-25.83-1083.81-511.2-16.57-84.39-13.72-169.11-12.77-254.14.87-79.1-.07-158.25-2.01-237.32-.68-27.75-17.01-43.43-46.64-44.8-120.68-5.63-201.83 71.04-202.07 191.71-.04 25.37 0 50.74 0 81.2"/>
        <path fill="#2880c3"
              d="M1231.4 1151.32c50.5-6.65 100.84-14.8 151.7-17.76 68.25-3.96 119.87 17.93 158.06 59.06 47.97 51.65 69.96 111.72 66.24 179.07-3.74 67.7-63.15 107.74-143.6 93.82-71.82-12.44-135.46-40.45-199.9-66.19-56.97-22.76-110.38-50.1-152.2-88.93-58.83-54.6-25.45-126.92 68.45-149.64 16.81-4.07 34.15-6.33 51.25-9.43M951.04 1292.4h.01l-.04.08c-5.26 16.05-14.23 30.7-25.01 44.45-37.13 57.87-88.75 110.07-141 153.84-27.42 23.82-56.6 45.54-86.8 65.9-67.21 46.37-119.88 73.35-119.88 73.35l-.18-.09c-79.93 39.95-152.84.9-172.06-90.31-21.58-102.32-4.3-200.31 51.23-289.6 38.22-61.46 97.27-90.6 167.92-97.23 44.18-4.14 88.54-6.52 132.82-9.68 36.05-.85 72-3.4 107.05 8.52 46.16 15.66 81.77 43.82 89.72 93.5 2.75 17.2.96 32.8-3.79 47.28m855.71-235.76c-.79 40.07-18.54 105.06-44.9 125.82-11.3 8.88-27.96 3.87-32.3-9.84-5.59-17.72-14.79-43.07-28.8-72.86h.05c-31.2-73.8-77.03-134.26-130.6-183.82-69.97-64.74-153.15-110.84-234.46-143.65-.02-.02-.04-.02-.07-.03a1054.8 1054.8 0 0 0-60.57-22.25 1121.63 1121.63 0 0 0-38.84-12.17c-.09-.03-.18-.06-.27-.07-6.16-1.82-12.27-3.55-18.32-5.22l-1-.29c-12.27-3.37-24.3-6.46-36-9.3l-1.43-.34a977.3 977.3 0 0 0-15.97-3.74l-1.38-.33a1302.96 1302.96 0 0 0-48.05-9.88l-1.7-.3c-9.83-1.81-19.19-3.42-28.1-4.86l-2.27-.35c-3.88-.62-7.66-1.2-11.33-1.75l-1.43-.22c-4.25-.62-8.36-1.21-12.31-1.76h-.03c-3.83-.53-7.47-1-11.02-1.47l-1.72-.2c-3.41-.43-6.72-.85-9.87-1.22h-.06c-26.21-3.06-42.54-3.99-45.12-4.12l-.38-.02.03-.03c-340.52-35.66 86.44-110.3 407.5-53.78l-.01-.03c.74.12 1.42.29 2.16.42 7.54 1.35 15.02 2.75 22.45 4.24a815.28 815.28 0 0 1 19.54 4.16 880.1 880.1 0 0 1 14.83 3.45c3.04.75 6.14 1.46 9.11 2.23 42.78 10.87 82.06 24.67 115.48 41.84 198.68 96.14 217.91 256.73 217.91 256.73 6.61 30.45 10.03 65.05 9.25 105.01"/>
        <path fill="#1c2437"
              d="M254.01 287.31h-27.94a6.65 6.65 0 0 1-6.65-6.64v-121.9c0-24.24 8.25-34.44 28.14-34.44 3.45 0 6.23.17 9.54.82a6.65 6.65 0 0 0 7.93-6.5V92.03c0-3.25-2.36-6-5.57-6.57-9.53-1.67-16.47-2.36-25.47-2.36-22.32 0-38.81 5.82-48.52 17.94-8.72 10.68-11.16 22.32-11.16 52.88v126.75a6.64 6.64 0 0 1-6.65 6.64h-21.63a6.64 6.64 0 0 0-6.65 6.66v26.96a6.64 6.64 0 0 0 6.65 6.65h21.63a6.64 6.64 0 0 1 6.65 6.65v52.67a6.65 6.65 0 0 0 6.65 6.64h31.82a6.64 6.64 0 0 0 6.64-6.64v-52.67a6.66 6.66 0 0 1 6.65-6.65h27.94a6.64 6.64 0 0 0 6.64-6.65v-26.96a6.64 6.64 0 0 0-6.64-6.66m89.46-87.8a6.64 6.64 0 0 1-6.64-6.64v-14.69c0-42.21 7.26-55.31 30.54-55.31 14.08 0 23.78 7.29 27.17 21.35 1.24 4.11 1.78 7.89 1.9 19.07a6.7 6.7 0 0 0 6.65 6.64h31.74a6.65 6.65 0 0 0 6.64-6.77c-.59-29.16-2.38-39.21-10.06-50.96-12.14-19.9-34.44-30.56-64.04-30.56-27.64 0-48.5 8.73-60.63 25.24-10.68 15.02-15.04 32.97-15.04 65.48v71.8c0 38.3 4.36 54.32 19.4 68.87 13.11 12.6 32.03 19.4 54.82 19.4 24.75 0 44.14-7.76 56.75-22.31 14.07-15.53 18.45-32.99 18.45-70.84v-33.13a6.65 6.65 0 0 0-6.66-6.64ZM396 252.4c0 28.62-8.74 40.26-29.6 40.26-20.85 0-29.57-11.64-29.57-40.26v-13.1H396zM584.64 91.58a77.6 77.6 0 0 0-1.5 8.28c-.7 5.43-7.2 7.97-11.13 4.17-16.12-15.54-27.9-20.94-44.07-20.94-30.56 0-49 24.26-49 64.05 0 31.04 11.65 49.96 41.72 67.9 10.28 6.55 22.36 12.19 57.52 27.35a6.76 6.76 0 0 1 4.08 6.13v8.23c0 24.75-6.79 34.45-23.77 34.45-15.56 0-23.38-8.57-26.07-28.67a6.5 6.5 0 0 0-6.4-5.78H491.7a6.63 6.63 0 0 0-6.63 7.4c6.07 43.72 33.74 66.82 79.72 66.82 22.32 0 38.33-5.81 49.5-18.43 10.17-12.62 13.08-23.77 13.08-53.35v-107.2c0-30.74.7-43.47 3.55-57.51a6.65 6.65 0 0 0-6.49-7.99h-33.3a6.65 6.65 0 0 0-6.49 5.09m-2.38 107.75a6.7 6.7 0 0 1-10.09 5.73c-32.42-18.8-45.68-34.7-45.68-55.03 0-16 9.7-27.15 22.79-27.15 12.1 0 23.3 6.68 31.9 20.07a7.2 7.2 0 0 1 1.08 3.76zm136.8 113.94c0-5.82 7-8.85 11.18-4.83 16.36 15.73 31.53 22.53 48.96 22.53 17.37 0 29.03-8.08 34.96-23.93 1.64-4.4 7.5-5.33 10.83-2 18.09 18.15 34.52 25.93 53.17 25.93 27.17 0 39.79-17.94 39.79-56.26V93.15a6.66 6.66 0 0 0-6.66-6.66h-31.81a6.64 6.64 0 0 0-6.64 6.66v169.92c0 20.85-4.38 28.13-16.98 28.13-12.1 0-24.64-8.03-35.92-22.37a6.93 6.93 0 0 1-1.45-4.21V93.15a6.65 6.65 0 0 0-6.65-6.66h-31.82a6.64 6.64 0 0 0-6.64 6.66v169.92c0 20.85-4.36 28.13-16.98 28.13-12.1 0-24.62-8.03-35.9-22.37a6.93 6.93 0 0 1-1.44-4.21V93.15a6.64 6.64 0 0 0-6.65-6.66H680.6a6.65 6.65 0 0 0-6.66 6.66v227.78a6.64 6.64 0 0 0 6.66 6.64h31.81a6.64 6.64 0 0 0 6.65-6.64Zm346.75-54.29a6.59 6.59 0 0 0-8.68 3.3c-9 20.77-18.9 28.92-34.9 28.92-14.06 0-23.77-8.73-23.77-21.35 0-13.1 6.8-19.89 40.74-38.32 27.17-15.04 39.3-22.8 49-32.98 10.67-11.15 16.99-27.65 16.99-45.6 0-42.69-29.6-71.31-74.22-71.31-39.3 0-64.5 19.4-80.22 61.52a6.7 6.7 0 0 0 4.12 8.59l29.5 10.17a6.63 6.63 0 0 0 8.43-3.88c9.3-25.12 20.6-35.16 38.17-35.16 15.02 0 25.7 10.17 25.7 24.25 0 13.58-7.76 22.3-33.96 36.37-32.98 18.45-42.2 24.75-52.88 35.9-11.15 11.66-17.45 28.14-17.45 45.6 0 39.29 29.58 67.43 70.33 67.43 36.31 0 60.42-16.55 75.66-52.12a6.72 6.72 0 0 0-3.52-8.7zm114.56 61.95v-2.43c0-5.65 6.52-8.6 10.93-5.07 15.07 12.13 28.28 17.54 42.44 17.54 17.45 0 31.03-8.73 38.8-24.73 7.27-16.5 9.7-33.47 9.7-70.34v-57.72c0-37.36-2.43-53.85-9.7-70.34-7.77-16-21.35-24.75-38.8-24.75-14.16 0-27.37 5.41-42.44 17.54-4.4 3.54-10.93.58-10.93-5.06v-84.9a6.64 6.64 0 0 0-6.64-6.65h-31.81a6.65 6.65 0 0 0-6.66 6.65v310.26a6.64 6.64 0 0 0 6.66 6.64h31.8a6.64 6.64 0 0 0 6.65-6.64m0-182.4a6.8 6.8 0 0 1 2.94-5.58c10.71-7.22 19.25-10.07 28.6-10.07 9.21 0 17.45 4.84 20.85 12.6 3.89 8.25 4.36 14.55 4.36 39.79v63.54c0 25.22-.47 31.52-4.36 39.77-3.4 7.77-11.64 12.62-20.85 12.62-9.32 0-18.21-3.24-28.57-10.09a6.76 6.76 0 0 1-2.97-5.59Zm192.93 60.98a6.64 6.64 0 0 1-6.65-6.64v-14.69c0-42.21 7.26-55.31 30.54-55.31 14.08 0 23.79 7.29 27.17 21.35 1.25 4.11 1.78 7.89 1.91 19.07a6.7 6.7 0 0 0 6.64 6.64h31.74a6.65 6.65 0 0 0 6.65-6.77c-.6-29.16-2.39-39.21-10.06-50.96-12.15-19.9-34.45-30.56-64.05-30.56-27.64 0-48.5 8.73-60.63 25.24-10.67 15.02-15.04 32.97-15.04 65.48v71.8c0 38.3 4.37 54.32 19.4 68.87 13.11 12.6 32.03 19.4 54.82 19.4 24.75 0 44.14-7.76 56.76-22.31 14.06-15.53 18.43-32.99 18.43-70.84v-33.13a6.64 6.64 0 0 0-6.65-6.64Zm52.51 52.88c0 28.62-8.72 40.26-29.58 40.26-20.85 0-29.58-11.64-29.58-40.26v-13.1h59.16zm188.65-160.81c-.6 2.52-1.1 5.28-1.49 8.28-.7 5.43-7.22 7.97-11.14 4.17-16.12-15.54-27.9-20.94-44.07-20.94-30.56 0-49 24.26-49 64.05 0 31.04 11.65 49.96 41.72 67.9 10.3 6.55 22.38 12.19 57.52 27.35a6.76 6.76 0 0 1 4.08 6.13v8.23c0 24.75-6.79 34.45-23.77 34.45-15.56 0-23.38-8.57-26.07-28.67a6.5 6.5 0 0 0-6.4-5.78h-34.32a6.61 6.61 0 0 0-6.61 7.4c6.05 43.72 33.72 66.82 79.7 66.82 22.32 0 38.34-5.81 49.5-18.43 10.19-12.62 13.1-23.77 13.1-53.35v-107.2c0-30.74.68-43.47 3.53-57.51a6.65 6.65 0 0 0-6.49-7.99h-33.3a6.65 6.65 0 0 0-6.49 5.09m-2.38 107.75a6.7 6.7 0 0 1-10.09 5.73c-32.42-18.8-45.68-34.7-45.68-55.03 0-16 9.7-27.15 22.79-27.15 12.1 0 23.3 6.68 31.9 20.07a7.2 7.2 0 0 1 1.08 3.76zm149.25 53.83 39.98 71.02a6.62 6.62 0 0 0 5.8 3.39h35.56c5.2 0 8.4-5.72 5.63-10.16l-41.01-65.78a6.65 6.65 0 0 1-.67-5.59l49.52-150.82a6.65 6.65 0 0 0-6.32-8.73h-36.34a6.64 6.64 0 0 0-6.36 4.74l-28.3 93.84a6.65 6.65 0 0 1-12 1.63l-16.9-26.78a6.7 6.7 0 0 1-1.03-3.55V93.14a6.64 6.64 0 0 0-6.65-6.65h-31.82a6.64 6.64 0 0 0-6.64 6.65V403.4a6.64 6.64 0 0 0 6.64 6.64h31.82a6.64 6.64 0 0 0 6.65-6.64V256.41c0-6.83 9.08-9.21 12.44-3.25"/>
    </g>
</svg>
