<svg xmlns="http://www.w3.org/2000/svg" width="220" height="220" viewBox="155.14 85.43 220 220">
    <circle cx="272.02" cy="126.68" r="32.09" fill="#7b83eb" transform="matrix(1, 0, 0, 1, 3.552713678800501e-15, 0)"/>
    <path fill-opacity=".1"
          d="M269.73 133.56h-29.06l.15.63.01.06.14.6a32.25 32.25 0 0 0 37.91 23.17v-15.3a9.23 9.23 0 0 0-9.16-9.16h.01Z"/>
    <path fill-opacity=".2" d="M262.85 140.43h-19.83a32.13 32.13 0 0 0 29 18.34v-9.17a9.23 9.23 0 0 0-9.17-9.16Z"/>
    <circle cx="344.2" cy="136.99" r="24.06" fill="#5059c9" transform="matrix(1, 0, 0, 1, 3.552713678800501e-15, 0)"/>
    <path fill="#5059c9"
          d="M364.83 167.93h-54.05a4.41 4.41 0 0 0-4.39 4.4v55.75a35.3 35.3 0 0 0 27.27 34.96c2.32.5 4.7.73 7.06.73a34.58 34.58 0 0 0 34.42-34.4v-51.13c0-5.66-4.66-10.3-10.3-10.3z"/>
    <path fill="#7b83eb"
          d="M327.02 178.24v65.35c0 30.15-24.82 54.96-54.97 54.96a55.02 55.02 0 0 1-47.6-27.5 49.45 49.45 0 0 1-3.45-6.87 57.48 57.48 0 0 1-2.27-6.88 56.62 56.62 0 0 1-1.72-13.75v-65.32c0-5.65 4.65-10.3 10.3-10.3h89.4c5.66 0 10.3 4.65 10.3 10.3z"/>
    <path fill-opacity=".2" d="M262.85 140.43h-19.83a32.13 32.13 0 0 0 29 18.34v-9.17a9.23 9.23 0 0 0-9.17-9.16z"/>
    <path fill-opacity=".1"
          d="M278.9 167.93v87.1c0 4.26-3 7.97-7.16 8.87-.65.2-1.32.3-2 .28H221a57.48 57.48 0 0 1-2.27-6.88 56.62 56.62 0 0 1-1.72-13.75v-65.32c0-5.65 4.65-10.3 10.3-10.3z"/>
    <path fill-opacity=".2"
          d="M272.02 167.93v93.98a7.1 7.1 0 0 1-.28 2 9.1 9.1 0 0 1-8.87 7.15h-38.43a49.33 49.33 0 0 1-3.44-6.88 57.31 57.31 0 0 1-2.27-6.88 56.62 56.62 0 0 1-1.72-13.75v-65.32c0-5.65 4.65-10.3 10.3-10.3zm0 0v80.23a9.23 9.23 0 0 1-9.15 9.15h-44.13a56.62 56.62 0 0 1-1.72-13.75v-65.33c0-5.65 4.65-10.3 10.3-10.3zm-44.7 0c-5.66 0-10.3 4.65-10.3 10.3v65.32c0 4.64.58 9.26 1.71 13.75H256c5-.02 9.12-4.13 9.14-9.14v-80.23z"/>
    <path fill="#4b53bc"
          d="M164.3 140.43h91.67a9.2 9.2 0 0 1 9.16 9.16v91.67a9.2 9.2 0 0 1-9.16 9.16H164.3a9.2 9.2 0 0 1-9.16-9.16V149.6a9.2 9.2 0 0 1 9.16-9.16z"/>
    <path fill="#fff" d="M237.5 174.63h-20.55v55.14h-13.5v-55.14h-20.67V161.1h54.72z"/>
    <path fill="none" d="M155.14 85.43h220v220h-220v-220Z"/>
</svg>
