<svg xmlns="http://www.w3.org/2000/svg" width="256" height="256" preserveAspectRatio="xMidYMid">
    <path fill="#DD4814"
          d="M255.64 127.68c0 70.52-57.17 127.68-127.69 127.68S.27 198.2.27 127.68C.27 57.17 57.44 0 127.95 0c70.52 0 127.69 57.17 127.69 127.68Z"/>
    <path fill="#FFF"
          d="M41.13 110.63a17.05 17.05 0 1 0 0 34.1 17.05 17.05 0 0 0 0-34.1Zm121.72 77.48a17.04 17.04 0 1 0 17.02 29.52 17.04 17.04 0 0 0-17.02-29.52Zm-84.69-60.43a49.73 49.73 0 0 1 21.17-40.74L86.87 66.07a74.21 74.21 0 0 0-30.62 43.04 23.9 23.9 0 0 1 0 37.14 74.16 74.16 0 0 0 30.62 43.05l12.46-20.88a49.7 49.7 0 0 1-21.17-40.74Zm49.8-49.8a49.8 49.8 0 0 1 49.59 45.39l24.29-.36a73.83 73.83 0 0 0-22-48.03 23.9 23.9 0 0 1-32.1-18.56 74.26 74.26 0 0 0-19.79-2.7 73.79 73.79 0 0 0-32.82 7.67l11.85 21.23a49.6 49.6 0 0 1 20.97-4.63Zm0 99.6a49.6 49.6 0 0 1-20.98-4.64l-11.84 21.23a74.04 74.04 0 0 0 52.6 4.97 23.89 23.89 0 0 1 11.66-16.9 23.89 23.89 0 0 1 20.44-1.65 73.83 73.83 0 0 0 22-48.04l-24.3-.35a49.78 49.78 0 0 1-49.59 45.38Zm34.88-110.24a17.03 17.03 0 1 0 17.05-29.49 17.03 17.03 0 0 0-17.05 29.5Z"/>
</svg>
