<svg xmlns="http://www.w3.org/2000/svg" width="256" height="290" preserveAspectRatio="xMidYMid">
    <path fill="#FFF" d="m128 .05 128 72.4v144.86l-128 72.4-128-72.4V72.45z"/>
    <path fill="#8ED6FB"
          d="m233.15 212.29-100.9 57.14v-44.44l62.89-34.63 38.01 21.93Zm6.91-6.23V86.66l-36.9 21.3v76.8l36.9 21.3Zm-217.6 6.23 100.9 57.09v-44.44l-62.89-34.58-38.01 21.93Zm-6.9-6.23V86.66l36.9 21.3v76.8l-36.9 21.3Zm4.3-127.13 103.5-58.55v43L57.04 99.83l-.53.29-36.66-21.2Zm215.85 0L132.25 20.38v43l66.27 36.5.53.3 36.66-21.25Z"/>
    <path fill="#1C78C0"
          d="M123.36 214.85 61.34 180.7v-67.58l62.02 35.8v65.93Zm8.9 0 62.01-34.1v-67.63l-62.02 35.8v65.93ZM65.5 105.3l62.3-34.25 62.27 34.25-62.26 35.93L65.5 105.3Z"/>
</svg>
